<?xml version="1.0" standalone="no"?>
<!DOCTYPE svg PUBLIC "-//W3C//DTD SVG 20010904//EN"
 "http://www.w3.org/TR/2001/REC-SVG-20010904/DTD/svg10.dtd">
<svg version="1.0" xmlns="http://www.w3.org/2000/svg"
 width="553.000000pt" height="311.000000pt" viewBox="0 0 553.000000 311.000000"
 preserveAspectRatio="xMidYMid meet">
<g transform="translate(0.000000,311.000000) scale(0.100000,-0.100000)"
fill="#000000" stroke="none">
<path d="M3640 2900 c-6 -11 -14 -19 -18 -19 -19 3 -25 -2 -12 -11 11 -7 7
-10 -17 -10 -18 0 -36 0 -39 1 -3 0 -12 -8 -19 -18 -7 -10 -17 -15 -21 -11 -4
4 -13 0 -20 -10 -11 -15 -16 -15 -34 -4 -26 16 -50 1 -50 -30 0 -10 -6 -21
-14 -24 -8 -3 -16 -14 -19 -25 -3 -10 -14 -19 -24 -19 -11 0 -39 -20 -64 -44
l-44 -45 5 -89 c4 -68 10 -94 24 -107 14 -14 17 -27 12 -56 -5 -32 -3 -37 9
-33 8 4 15 2 15 -4 0 -6 -5 -12 -11 -14 -17 -6 19 -72 47 -85 13 -6 24 -7 24
-2 0 5 5 9 11 9 6 0 9 -6 7 -12 -8 -22 42 -54 101 -66 18 -4 32 -11 32 -17 0
-18 38 -25 107 -20 77 6 92 16 74 46 -18 28 -5 40 14 14 9 -12 24 -19 36 -17
27 5 107 63 138 101 14 17 30 31 37 31 7 0 13 11 13 24 0 14 9 40 20 59 25 43
38 131 21 151 -6 7 -9 21 -5 30 10 27 -16 111 -44 142 -15 16 -26 32 -25 36 2
5 -2 7 -9 5 -7 -1 -12 4 -13 10 0 13 -45 50 -45 38 0 -4 -7 1 -16 9 -8 9 -21
16 -29 16 -7 0 -15 9 -18 21 -3 12 -10 18 -16 14 -6 -3 -11 -2 -11 4 0 8 -77
51 -93 51 -3 0 -11 -9 -17 -20z m48 -116 c68 -22 95 -39 128 -80 58 -73 66
-98 62 -193 -5 -90 -12 -113 -53 -170 -36 -49 -80 -73 -180 -98 -56 -14 -64
-13 -115 4 -62 22 -143 70 -156 93 -68 119 -79 186 -46 270 22 58 63 120 80
120 6 0 12 4 12 9 0 8 44 29 120 56 38 14 81 11 148 -11z"/>
<path d="M1897 2834 c-2 -2 -40 -6 -83 -8 -43 -2 -90 -8 -104 -14 -28 -11 -33
-12 -56 -12 -8 0 -13 -4 -10 -9 3 -5 -2 -8 -11 -7 -10 0 -18 -5 -18 -12 0 -7
-7 -17 -15 -22 -9 -6 -14 -21 -12 -39 3 -22 -2 -33 -17 -41 -12 -6 -21 -17
-21 -25 0 -8 -7 -15 -16 -15 -12 0 -14 3 -6 13 7 8 7 18 2 27 -7 11 -11 8 -19
-13 -6 -16 -11 -32 -11 -37 0 -5 -9 -15 -20 -23 -27 -19 -40 -59 -40 -122 0
-54 15 -105 32 -105 7 0 70 -118 79 -148 6 -18 55 -72 67 -72 6 0 12 -4 12
-10 0 -5 12 -13 28 -16 15 -4 34 -12 42 -19 28 -23 197 -36 210 -16 3 5 29 17
59 27 31 11 65 32 81 51 16 17 31 29 34 26 3 -4 6 0 6 7 0 7 11 23 25 36 22
20 25 30 19 59 -5 30 -4 35 14 35 39 0 50 121 13 144 -6 4 -8 13 -5 20 3 7 -4
29 -16 49 -20 34 -20 36 -3 46 17 9 17 11 1 23 -9 7 -18 22 -20 33 -2 11 -13
24 -26 30 -12 5 -26 21 -31 35 -5 14 -10 19 -10 13 -1 -7 -6 -13 -12 -13 -5 0
-7 5 -4 10 3 6 0 13 -8 16 -8 3 -17 17 -20 32 -3 15 -16 33 -28 41 -27 16 -76
31 -82 25z m-197 -54 c0 -5 -7 -10 -15 -10 -8 0 -15 5 -15 10 0 6 7 10 15 10
8 0 15 -4 15 -10z m216 -27 c50 -16 134 -79 134 -101 0 -6 11 -19 24 -30 21
-16 26 -31 32 -94 11 -130 -30 -215 -145 -297 -41 -29 -50 -31 -128 -31 -72 0
-91 4 -131 26 -72 40 -111 85 -138 159 -28 78 -29 98 -8 173 26 91 87 160 168
191 63 25 123 26 192 4z"/>
<path d="M1300 1254 c0 -30 31 -62 67 -70 68 -15 78 -20 81 -47 3 -27 21 -38
23 -14 1 39 10 100 15 108 16 27 47 -21 59 -92 4 -30 12 -39 43 -53 52 -23 79
-40 107 -66 25 -23 25 -23 25 -3 0 36 53 41 91 9 49 -41 78 -33 53 15 -13 27
-19 29 -70 29 -46 0 -59 4 -79 26 -13 14 -25 35 -27 47 -4 28 -21 29 -27 2 -3
-19 -18 -35 -33 -35 -14 0 -41 51 -47 87 -5 31 -12 38 -51 53 -32 13 -49 15
-58 8 -17 -15 -88 -13 -106 1 -8 7 -27 14 -41 15 -20 3 -25 -1 -25 -20z"/>
<path d="M2408 1249 c-20 -21 -24 -54 -8 -64 13 -8 47 63 34 74 -5 4 -17 0
-26 -10z"/>
<path d="M3207 1263 c-26 -7 -19 -48 8 -48 14 0 21 8 23 28 3 27 2 28 -31 20z"/>
<path d="M2801 1229 c-19 -24 -22 -37 -17 -72 3 -23 8 -73 10 -110 4 -66 21
-106 37 -90 10 10 12 146 4 194 -5 22 -2 45 5 59 10 18 9 25 -2 35 -11 11 -17
8 -37 -16z"/>
<path d="M4084 1248 c-46 -70 -56 -99 -49 -135 4 -23 11 -33 24 -33 24 0 37
16 47 60 15 63 -1 141 -22 108z"/>
<path d="M3857 1130 c-9 -22 -17 -44 -17 -49 0 -5 -12 -18 -26 -28 l-26 -19
22 -37 c35 -59 77 -61 98 -3 23 62 9 162 -23 173 -6 2 -18 -15 -28 -37z"/>
<path d="M1940 1101 c0 -11 3 -21 8 -23 4 -1 17 -16 30 -32 12 -16 22 -27 23
-25 8 48 6 60 -18 79 -32 25 -43 25 -43 1z"/>
<path d="M3496 920 c-54 -45 -63 -48 -158 -53 -38 -1 -72 -7 -77 -12 -13 -15
8 -127 29 -156 l19 -24 9 25 c14 38 96 118 128 126 23 6 31 2 57 -29 16 -21
37 -37 47 -37 26 0 61 53 67 100 5 34 2 42 -28 69 -18 17 -36 31 -39 31 -3 0
-27 -18 -54 -40z"/>
<path d="M2071 872 c-24 -48 -29 -68 -26 -113 4 -72 19 -107 50 -119 35 -13
53 0 94 69 45 74 46 119 6 161 -27 28 -74 60 -89 60 -3 0 -19 -26 -35 -58z"/>
<path d="M2285 826 c-12 -17 -14 -30 -7 -43 5 -10 12 -34 16 -54 7 -42 26 -62
50 -53 12 5 16 19 15 58 -2 81 -11 111 -36 114 -14 2 -27 -5 -38 -22z"/>
<path d="M2715 739 c-80 -8 -123 -18 -131 -30 -3 -5 -16 -9 -30 -9 -39 0 -27
-17 21 -29 25 -6 45 -17 45 -23 0 -7 6 -4 13 5 19 25 99 43 144 31 30 -7 42
-17 57 -48 l19 -39 19 23 c15 18 18 32 13 60 -4 19 -11 40 -16 46 -13 16 -69
20 -154 13z"/>
<path d="M3100 676 c0 -22 17 -28 24 -10 9 22 8 24 -9 24 -8 0 -15 -6 -15 -14z"/>
</g>
</svg>
