<?xml version="1.0" standalone="no"?>
<!DOCTYPE svg PUBLIC "-//W3C//DTD SVG 20010904//EN"
 "http://www.w3.org/TR/2001/REC-SVG-20010904/DTD/svg10.dtd">
<svg version="1.0" xmlns="http://www.w3.org/2000/svg"
 width="553.000000pt" height="311.000000pt" viewBox="0 0 553.000000 311.000000"
 preserveAspectRatio="xMidYMid meet">
<g transform="translate(0.000000,311.000000) scale(0.100000,-0.100000)"
fill="#000000" stroke="none">
<path d="M3542 2818 c-5 -5 -18 -10 -29 -12 -67 -13 -183 -105 -183 -146 0
-11 -4 -20 -10 -20 -5 0 -10 -8 -10 -18 0 -11 -7 -33 -16 -51 -15 -29 -15 -37
1 -101 9 -39 21 -70 26 -70 5 0 9 -9 9 -20 0 -10 11 -30 25 -44 14 -14 25 -22
25 -19 0 4 6 1 12 -5 10 -10 10 -14 0 -21 -10 -6 -4 -10 18 -14 20 -5 29 -11
24 -18 -4 -7 -3 -9 4 -5 6 3 13 2 17 -4 4 -6 11 -8 16 -4 5 3 15 1 22 -4 7 -6
14 -10 17 -10 3 0 24 -5 48 -11 24 -7 53 -9 65 -5 12 4 32 7 45 5 12 -1 22 2
22 8 0 6 3 10 8 9 19 -5 53 15 48 28 -4 11 0 13 19 8 21 -5 25 -2 25 14 0 12
5 24 10 27 6 4 9 3 8 -2 -2 -4 0 -9 5 -10 4 -2 7 0 6 3 0 3 11 16 25 29 14 13
26 29 26 35 0 5 4 18 9 28 27 54 32 72 27 117 -3 28 -5 64 -6 80 0 24 -2 27
-11 15 -8 -12 -9 -9 -5 13 4 15 2 27 -4 27 -5 0 -10 6 -10 13 0 22 -116 134
-127 123 -3 -3 -13 0 -21 6 -7 7 -24 14 -35 15 -95 15 -138 18 -145 11z m98
-39 c0 -5 15 -9 33 -9 17 0 43 -9 57 -20 14 -11 31 -20 38 -20 7 0 17 -11 22
-24 5 -13 18 -27 29 -31 13 -4 21 -15 21 -29 0 -12 6 -28 13 -34 8 -9 12 -44
12 -99 0 -60 -4 -88 -12 -90 -7 -3 -13 -12 -13 -22 0 -31 -99 -114 -150 -126
-3 -1 -25 -7 -49 -14 -25 -7 -56 -10 -70 -7 -14 4 -31 8 -38 9 -7 2 -16 6 -19
10 -4 4 -16 7 -26 7 -10 0 -21 7 -24 15 -4 8 -11 15 -18 15 -17 0 -82 71 -91
100 -4 14 -11 30 -16 36 -15 19 -23 104 -10 104 7 0 9 5 6 10 -9 14 25 111 36
104 5 -3 9 0 9 6 0 30 104 100 147 100 13 0 23 4 23 9 0 4 20 8 45 8 25 0 45
-4 45 -8z"/>
<path d="M1760 2784 c-39 -7 -80 -26 -80 -36 0 -5 -4 -7 -8 -4 -5 3 -16 -4
-26 -15 -9 -12 -23 -18 -31 -15 -9 3 -12 0 -8 -10 3 -8 -6 -23 -21 -35 -14
-11 -24 -24 -21 -29 3 -5 0 -10 -6 -12 -6 -2 -13 -15 -14 -28 -2 -14 -7 -43
-13 -65 -10 -42 -10 -89 0 -115 3 -8 14 -37 23 -63 12 -34 21 -47 31 -43 11 4
13 2 6 -11 -7 -11 -4 -21 9 -34 11 -11 23 -19 28 -19 4 0 19 -10 33 -22 14
-13 32 -24 39 -26 8 -2 28 -9 45 -17 23 -11 51 -13 105 -9 41 4 76 10 79 14 3
4 16 11 29 15 20 6 97 78 138 129 23 28 34 109 28 201 -6 83 -15 128 -15 77 0
-12 -5 -22 -11 -22 -7 0 -9 10 -7 25 4 17 1 25 -8 25 -8 0 -14 6 -14 13 0 7
-21 34 -47 60 -34 34 -49 44 -55 35 -5 -9 -8 -9 -8 -1 0 24 -133 49 -200 37z
m115 -36 c22 -6 44 -12 48 -12 4 -1 11 -6 15 -11 4 -6 19 -10 34 -10 15 1 25
-2 22 -6 -2 -4 10 -23 26 -44 16 -20 32 -45 35 -56 4 -10 11 -19 16 -19 6 0 8
-9 4 -19 -3 -11 1 -25 10 -34 16 -17 21 -107 6 -107 -6 0 -18 -27 -28 -60 -9
-33 -21 -60 -25 -60 -9 0 -41 -25 -67 -52 -9 -10 -27 -19 -40 -21 -12 -2 -26
-9 -31 -17 -19 -30 -220 8 -220 43 0 4 -9 7 -19 7 -12 0 -22 9 -26 23 -4 12
-15 29 -25 37 -10 8 -28 46 -39 84 l-21 68 22 72 c15 49 31 80 53 101 73 69
89 79 146 90 12 2 24 7 27 10 8 8 34 6 77 -7z"/>
<path d="M3765 2250 c-3 -5 -1 -10 4 -10 6 0 11 5 11 10 0 6 -2 10 -4 10 -3 0
-8 -4 -11 -10z"/>
<path d="M993 1804 c-15 -16 -16 -24 -4 -24 8 0 24 30 19 35 -2 2 -9 -3 -15
-11z"/>
<path d="M881 1794 c0 -11 3 -14 6 -6 3 7 2 16 -1 19 -3 4 -6 -2 -5 -13z"/>
<path d="M1105 1780 c-3 -5 -1 -10 4 -10 6 0 11 5 11 10 0 6 -2 10 -4 10 -3 0
-8 -4 -11 -10z"/>
<path d="M1146 1711 c-10 -15 12 -61 29 -61 12 0 15 -6 10 -20 -4 -11 -2 -20
4 -20 6 0 11 16 11 35 0 28 -4 35 -19 35 -14 0 -18 5 -14 20 5 20 -11 28 -21
11z"/>
<path d="M1318 1673 c7 -3 16 -2 19 1 4 3 -2 6 -13 5 -11 0 -14 -3 -6 -6z"/>
<path d="M1016 1638 c-13 -43 -13 -56 0 -51 8 3 14 18 14 34 0 30 -8 39 -14
17z"/>
<path d="M1345 1600 c-3 -5 -1 -10 4 -10 6 0 11 5 11 10 0 6 -2 10 -4 10 -3 0
-8 -4 -11 -10z"/>
<path d="M4431 1600 c-8 -4 -20 -6 -28 -3 -9 4 -13 -4 -13 -23 0 -21 3 -25 11
-17 6 6 17 9 24 7 6 -3 17 1 23 8 14 18 1 40 -17 28z"/>
<path d="M1034 1585 c-4 -9 -2 -20 3 -24 6 -3 12 -15 14 -26 5 -24 37 -32 45
-11 4 10 -6 27 -25 47 -27 26 -32 28 -37 14z"/>
<path d="M1516 1587 c3 -10 9 -15 12 -12 3 3 0 11 -7 18 -10 9 -11 8 -5 -6z"/>
<path d="M4310 1587 c0 -10 8 -17 18 -17 9 0 13 4 7 8 -5 4 -13 11 -17 16 -5
5 -8 2 -8 -7z"/>
<path d="M1220 1586 c0 -2 7 -9 15 -16 12 -10 15 -10 15 4 0 9 -7 16 -15 16
-8 0 -15 -2 -15 -4z"/>
<path d="M1440 1556 c0 -8 -4 -16 -9 -18 -4 -1 -12 -13 -15 -26 -5 -16 -3 -24
9 -28 21 -9 25 -3 31 45 3 25 1 41 -6 41 -5 0 -10 -6 -10 -14z"/>
<path d="M4580 1555 c-10 -13 -9 -15 8 -15 15 0 20 5 16 15 -4 8 -7 15 -9 15
-1 0 -8 -7 -15 -15z"/>
<path d="M997 1539 c7 -7 15 -10 18 -7 3 3 -2 9 -12 12 -14 6 -15 5 -6 -5z"/>
<path d="M1585 1540 c3 -5 8 -10 11 -10 2 0 4 5 4 10 0 6 -5 10 -11 10 -5 0
-7 -4 -4 -10z"/>
<path d="M4230 1524 c-24 -14 -24 -14 15 -8 46 7 72 25 35 23 -14 -1 -36 -7
-50 -15z"/>
<path d="M1018 1494 c3 -16 11 -35 19 -43 12 -11 13 -9 7 15 -3 16 -12 35 -19
42 -10 11 -12 9 -7 -14z"/>
<path d="M1607 1504 c3 -8 13 -12 24 -11 21 3 37 16 23 18 -44 6 -52 5 -47 -7z"/>
<path d="M1676 1505 c-4 -11 2 -15 22 -14 17 1 20 3 9 6 -9 2 -15 9 -12 14 4
5 2 9 -3 9 -6 0 -12 -7 -16 -15z"/>
<path d="M4560 1501 c0 -26 16 -35 24 -15 10 25 7 34 -9 34 -8 0 -15 -9 -15
-19z"/>
<path d="M1100 1493 c0 -7 6 -16 14 -19 8 -3 12 -13 10 -22 -5 -13 -2 -13 10
2 16 19 16 19 16 -2 0 -14 -6 -22 -17 -22 -17 -1 -17 -1 0 -11 9 -5 21 -7 26
-4 6 3 11 -12 13 -32 3 -35 6 -38 32 -38 16 0 31 6 34 13 2 6 -4 12 -12 12
-21 0 -45 48 -29 58 16 10 -2 49 -26 57 -12 3 -21 10 -21 14 0 5 -11 9 -25 9
-15 0 -25 -6 -25 -15z m127 -139 c-3 -3 -12 -4 -19 -1 -8 3 -5 6 6 6 11 1 17
-2 13 -5z"/>
<path d="M4163 1498 c2 -7 15 -13 28 -13 35 0 46 7 23 16 -30 12 -56 10 -51
-3z"/>
<path d="M4130 1485 c-7 -9 -8 -15 -2 -15 5 0 12 7 16 15 3 8 4 15 2 15 -2 0
-9 -7 -16 -15z"/>
<path d="M4028 1482 c-10 -2 -18 -8 -18 -13 0 -6 -6 -7 -12 -3 -10 5 -10 3 0
-7 11 -12 14 -12 21 0 6 9 20 12 40 9 18 -3 31 0 31 6 0 11 -32 15 -62 8z"/>
<path d="M4521 1460 c-15 -25 -17 -37 -9 -47 15 -18 29 -16 21 2 -3 9 2 24 10
33 10 11 13 22 7 31 -6 11 -13 7 -29 -19z"/>
<path d="M4231 1464 c0 -11 3 -14 6 -6 3 7 2 16 -1 19 -3 4 -6 -2 -5 -13z"/>
<path d="M4364 1469 c-9 -16 2 -22 21 -11 15 8 16 10 1 15 -8 3 -18 2 -22 -4z"/>
<path d="M1730 1463 c0 -13 57 -32 80 -26 11 3 27 0 35 -7 9 -7 18 -11 21 -8
7 8 -55 35 -98 43 -21 4 -38 3 -38 -2z"/>
<path d="M3957 1446 c-4 -10 -15 -13 -32 -10 -15 3 -24 1 -21 -5 3 -5 1 -11
-6 -13 -7 -3 6 -4 28 -3 44 3 97 24 61 25 -10 0 -15 5 -12 10 3 6 2 10 -3 10
-6 0 -12 -6 -15 -14z"/>
<path d="M1592 1438 c7 -18 -17 -34 -27 -18 -9 14 -27 12 -23 -2 6 -16 42 -20
61 -5 14 11 14 13 -1 27 -14 13 -15 12 -10 -2z"/>
<path d="M1470 1410 c13 -24 35 -27 26 -4 -3 9 -6 18 -6 20 0 2 -7 4 -15 4
-13 0 -14 -4 -5 -20z"/>
<path d="M1788 1413 c6 -2 18 -2 25 0 6 3 1 5 -13 5 -14 0 -19 -2 -12 -5z"/>
<path d="M1940 1411 c0 -6 4 -13 10 -16 6 -3 7 1 4 9 -7 18 -14 21 -14 7z"/>
<path d="M4187 1400 c4 -16 8 -18 19 -9 20 16 17 29 -5 29 -14 0 -18 -5 -14
-20z"/>
<path d="M1865 1379 c1 -18 10 -36 19 -41 9 -5 16 -8 17 -6 7 28 5 40 -8 45
-14 5 -13 8 3 20 17 12 16 13 -8 13 -23 0 -25 -4 -23 -31z"/>
<path d="M3850 1394 c-7 -8 -20 -14 -29 -15 -9 -1 -5 -4 9 -8 32 -9 60 -2 60
14 0 19 -27 26 -40 9z"/>
<path d="M4430 1390 c0 -11 4 -20 9 -20 5 0 16 -3 25 -6 12 -5 16 0 16 20 0
21 -5 26 -25 26 -18 0 -25 -5 -25 -20z"/>
<path d="M1276 1314 c2 -65 8 -90 22 -109 11 -13 22 -21 26 -18 3 3 6 1 6 -5
0 -7 10 -10 23 -8 12 2 32 0 44 -5 26 -10 39 4 19 20 -11 9 -15 9 -19 -1 -4
-8 -6 -9 -6 -1 -1 6 -10 9 -22 6 -33 -9 -67 37 -63 87 1 23 -1 38 -7 35 -13
-9 -11 19 3 33 9 9 7 16 -8 31 l-21 19 3 -84z"/>
<path d="M4050 1390 c0 -6 7 -10 15 -10 8 0 15 2 15 4 0 2 -7 6 -15 10 -8 3
-15 1 -15 -4z"/>
<path d="M1960 1370 c0 -5 5 -10 11 -10 5 0 7 5 4 10 -3 6 -8 10 -11 10 -2 0
-4 -4 -4 -10z"/>
<path d="M4372 1364 c-11 -11 -30 -14 -81 -10 -66 4 -68 4 -84 -24 -16 -27
-29 -89 -28 -137 1 -13 -5 -22 -12 -20 -6 1 -10 -5 -8 -13 7 -24 1 -115 -8
-118 -10 -3 -2 -50 10 -58 5 -3 9 6 9 20 0 14 5 26 10 26 6 0 10 11 10 24 0
14 5 28 10 31 6 4 8 31 5 65 -4 51 -2 61 14 70 11 5 23 20 27 32 4 13 16 35
27 49 10 15 16 32 13 38 -4 6 -2 11 3 11 6 0 11 -7 11 -15 0 -22 50 -32 65
-12 7 9 15 14 18 10 4 -3 9 1 12 9 4 10 14 14 28 11 18 -5 20 -3 10 8 -18 18
-46 20 -61 3z m-128 -59 c-7 -16 -24 -21 -24 -6 0 8 7 13 27 20 1 1 0 -6 -3
-14z m-17 -31 c-3 -3 -12 -4 -19 -1 -8 3 -5 6 6 6 11 1 17 -2 13 -5z"/>
<path d="M1028 1363 c6 -2 9 -10 6 -15 -4 -7 -2 -8 5 -4 13 9 5 26 -12 25 -9
0 -8 -2 1 -6z"/>
<path d="M1453 1332 c-25 -27 -22 -42 7 -42 24 0 28 8 21 41 l-6 26 -22 -25z"/>
<path d="M1570 1342 c0 -15 4 -20 16 -15 9 3 12 9 7 12 -4 3 -11 10 -15 15 -5
5 -8 0 -8 -12z"/>
<path d="M3768 1354 c6 -3 12 -10 12 -15 0 -6 -3 -8 -7 -6 -5 3 -17 -4 -27
-14 -16 -16 -17 -19 -4 -19 9 0 18 -3 21 -7 2 -5 2 -3 1 4 -2 7 9 21 23 33 14
11 24 20 22 21 -27 5 -51 7 -41 3z"/>
<path d="M4545 1350 c3 -5 8 -10 11 -10 2 0 4 5 4 10 0 6 -5 10 -11 10 -5 0
-7 -4 -4 -10z"/>
<path d="M1980 1343 c0 -5 7 -17 15 -27 14 -19 15 -19 15 7 0 17 -5 27 -15 27
-8 0 -15 -3 -15 -7z"/>
<path d="M2618 1343 c7 -3 16 -2 19 1 4 3 -2 6 -13 5 -11 0 -14 -3 -6 -6z"/>
<path d="M3977 1339 c-9 -6 -17 -14 -17 -19 0 -10 38 -1 45 11 9 13 -9 18 -28
8z"/>
<path d="M4430 1325 c-17 -19 -26 -22 -32 -13 -4 7 -8 9 -9 3 0 -5 -2 -17 -4
-26 -2 -12 4 -16 21 -16 13 0 21 3 19 8 -3 4 4 17 16 28 12 11 19 25 17 31 -2
6 -14 0 -28 -15z"/>
<path d="M1036 1316 c3 -9 11 -16 16 -16 13 0 5 23 -10 28 -7 2 -10 -2 -6 -12z"/>
<path d="M1193 1292 c-1 -20 -3 -46 -5 -57 -2 -11 2 -19 9 -18 6 1 14 -11 18
-27 4 -16 11 -33 17 -36 8 -5 8 2 3 22 -11 38 -11 93 -1 123 7 19 5 23 -7 18
-8 -3 -19 -1 -24 4 -5 5 -9 -7 -10 -29z"/>
<path d="M4092 1302 c-24 -20 -32 -35 -32 -59 0 -17 -5 -33 -10 -35 -14 -4
-21 -43 -20 -100 1 -68 2 -78 12 -78 4 0 8 -7 8 -16 0 -16 23 -44 36 -44 5 0
3 5 -4 12 -7 7 -12 19 -12 27 0 8 3 11 7 7 17 -16 57 207 42 235 -6 11 -1 23
16 39 24 23 25 40 2 40 -7 0 -27 -13 -45 -28z m12 -117 c-5 -26 -9 -33 -15
-23 -6 8 -6 0 -2 -21 5 -27 3 -32 -7 -26 -8 5 -11 4 -6 -3 4 -6 4 -23 0 -38
-6 -24 -8 -25 -17 -8 -15 26 -10 107 8 120 8 6 15 18 15 26 0 20 12 30 23 19
4 -4 5 -25 1 -46z"/>
<path d="M4541 1313 c0 -5 4 -17 9 -28 8 -18 9 -17 9 8 1 15 -3 27 -9 27 -5 0
-10 -3 -9 -7z"/>
<path d="M3150 1300 c0 -5 5 -10 11 -10 5 0 7 5 4 10 -3 6 -8 10 -11 10 -2 0
-4 -4 -4 -10z"/>
<path d="M1324 1278 c2 -13 9 -22 16 -20 6 1 9 -2 6 -7 -4 -5 -2 -12 4 -16 14
-9 101 -14 119 -7 22 8 -32 21 -70 17 -16 -2 -27 0 -24 5 3 5 -3 13 -12 19
-10 6 -13 11 -8 11 11 0 -15 20 -27 20 -5 0 -6 -10 -4 -22z"/>
<path d="M2472 1280 c-7 -11 -8 -21 -2 -25 5 -3 14 3 20 14 13 26 -2 35 -18
11z"/>
<path d="M3991 1278 c-1 -16 -5 -28 -10 -28 -15 0 -18 -79 -4 -84 8 -4 13 3
13 19 0 13 4 35 10 49 6 16 6 35 0 48 -8 22 -9 22 -9 -4z"/>
<path d="M1486 1283 c-12 -13 -5 -29 17 -38 12 -6 22 -18 22 -27 0 -9 3 -19 6
-23 4 -3 5 -51 3 -106 -4 -89 -2 -102 16 -121 11 -12 20 -25 20 -30 0 -4 6 -5
14 -2 10 4 12 -1 9 -19 -3 -14 0 -27 5 -31 6 -3 10 8 10 29 0 19 -4 35 -8 35
-4 0 -13 14 -19 30 -5 17 -15 30 -20 30 -6 0 -11 16 -11 35 0 28 4 35 20 35
11 0 20 5 20 11 0 6 -7 9 -15 5 -16 -6 -18 -1 -19 60 -1 29 3 41 13 40 18 -1
27 54 9 55 -7 1 -17 2 -23 4 -5 1 -21 3 -35 4 -18 1 -21 4 -12 10 11 7 11 9
-1 14 -8 3 -18 3 -21 0z"/>
<path d="M2370 1275 c-1 -11 -2 -24 -1 -28 1 -5 3 -22 5 -38 4 -37 14 -48 27
-29 9 12 10 12 5 -3 -3 -10 -6 -21 -6 -23 0 -3 -4 -3 -9 0 -5 4 -4 -5 2 -18
12 -25 33 -25 23 -1 -3 8 -1 15 4 17 9 3 13 22 11 52 -1 15 -4 16 -15 7 -12
-10 -17 -4 -29 36 -9 28 -16 40 -17 28z"/>
<path d="M2766 1274 c-4 -10 -1 -14 6 -12 15 5 23 28 10 28 -5 0 -13 -7 -16
-16z"/>
<path d="M3275 1279 c-11 -16 -1 -19 13 -3 7 8 8 14 3 14 -5 0 -13 -5 -16 -11z"/>
<path d="M2026 1271 c-4 -7 -5 -15 -2 -18 9 -9 19 4 14 18 -4 11 -6 11 -12 0z"/>
<path d="M2164 1266 c-3 -8 -4 -23 -2 -33 3 -11 6 -6 9 15 6 34 2 42 -7 18z"/>
<path d="M2718 1275 c-8 -8 3 -55 13 -55 4 0 7 9 6 20 -1 11 -5 20 -10 20 -4
0 -5 5 -2 10 7 11 2 14 -7 5z"/>
<path d="M3488 1245 c5 -40 7 -42 21 -16 8 14 6 22 -7 34 -17 15 -18 14 -14
-18z"/>
<path d="M3725 1270 c-4 -6 -3 -16 3 -22 6 -6 12 -6 17 2 4 6 3 16 -3 22 -6 6
-12 6 -17 -2z"/>
<path d="M1630 1260 c0 -5 4 -10 9 -10 6 0 13 5 16 10 3 6 -1 10 -9 10 -9 0
-16 -4 -16 -10z"/>
<path d="M2956 1255 c-3 -9 -6 -24 -5 -33 0 -9 5 -4 10 12 9 32 6 48 -5 21z"/>
<path d="M3240 1259 c0 -5 5 -7 10 -4 6 3 10 8 10 11 0 2 -4 4 -10 4 -5 0 -10
-5 -10 -11z"/>
<path d="M3531 1252 c-11 -21 -11 -62 0 -62 4 0 9 18 11 40 4 45 3 48 -11 22z"/>
<path d="M2631 1242 c-8 -14 -6 -19 5 -19 7 0 14 9 14 19 0 10 -2 18 -5 18 -2
0 -9 -8 -14 -18z"/>
<path d="M4375 1251 c-3 -5 -2 -12 3 -15 5 -3 9 1 9 9 0 17 -3 19 -12 6z"/>
<path d="M2820 1240 c0 -6 -11 -15 -25 -20 -20 -8 -25 -16 -25 -44 0 -19 7
-42 16 -50 8 -9 14 -28 13 -43 -5 -64 1 -144 11 -138 6 3 10 1 10 -5 0 -6 5
-8 10 -5 6 3 10 42 10 86 0 56 4 79 13 79 9 0 9 2 0 8 -7 4 -16 26 -21 49 -8
33 -7 45 4 54 19 15 18 39 -1 39 -8 0 -15 -5 -15 -10z"/>
<path d="M3910 1240 c0 -5 -5 -10 -11 -10 -18 0 -70 -61 -62 -74 10 -15 10
-36 1 -63 -4 -14 -2 -26 7 -33 12 -10 13 -8 10 9 -2 12 3 25 13 31 9 5 12 10
7 10 -17 0 -17 47 0 47 8 0 12 -4 9 -9 -3 -4 1 -8 10 -8 18 0 32 -58 18 -72
-12 -12 -4 -40 9 -32 5 3 7 10 4 15 -4 5 -3 15 2 22 9 13 11 67 3 67 -3 0 -11
14 -17 30 -6 17 -7 28 -2 24 5 -3 9 9 9 25 0 17 -2 31 -5 31 -3 0 -5 -4 -5
-10z m-20 -50 c0 -5 -2 -10 -4 -10 -3 0 -8 5 -11 10 -3 6 -1 10 4 10 6 0 11
-4 11 -10z"/>
<path d="M2123 1224 c0 -16 13 -19 21 -5 3 5 0 11 -7 14 -8 3 -14 -1 -14 -9z"/>
<path d="M2420 1236 c0 -2 6 -9 14 -15 10 -9 15 -8 20 4 4 10 -1 15 -14 15
-11 0 -20 -2 -20 -4z"/>
<path d="M3180 1223 c0 -7 7 -13 15 -13 8 0 15 6 15 13 0 8 -7 14 -15 14 -8 0
-15 -6 -15 -14z"/>
<path d="M3233 1223 c5 -23 -13 -36 -37 -27 -13 5 -13 2 -3 -20 13 -28 33 -29
31 -3 -1 13 2 14 17 6 23 -12 23 -10 3 32 -8 19 -13 24 -11 12z"/>
<path d="M1688 1205 c-7 -9 -18 -21 -24 -29 -7 -7 -10 -24 -7 -37 4 -20 0 -25
-17 -26 -16 -1 -22 5 -27 27 -3 17 -9 27 -14 24 -5 -3 -9 2 -9 11 0 9 -4 13
-10 10 -16 -10 -11 -32 13 -59 24 -25 65 -32 79 -11 4 5 8 0 8 -12 0 -13 6
-23 14 -23 20 0 31 -19 18 -32 -7 -7 -18 -4 -35 7 -15 9 -30 14 -36 11 -5 -4
-17 1 -25 10 -15 14 -16 14 -12 -8 3 -13 5 -26 5 -30 1 -4 13 -3 27 2 27 11
54 -5 54 -32 0 -8 9 -31 20 -53 11 -22 20 -45 20 -51 0 -7 7 -15 16 -18 8 -3
13 -10 10 -15 -3 -5 3 -20 13 -32 16 -20 22 -22 33 -11 11 11 8 17 -13 35 -21
18 -26 28 -22 53 3 21 -1 36 -13 49 -42 42 -49 97 -10 82 9 -4 16 -2 16 3 0 6
7 10 16 10 8 0 12 -4 9 -10 -3 -5 -1 -10 6 -10 7 0 9 -3 6 -7 -12 -12 15 -33
43 -33 25 0 46 -21 42 -42 -1 -5 6 -8 15 -8 9 0 14 -3 10 -6 -6 -6 37 -54 48
-54 14 0 2 29 -20 48 -14 12 -25 30 -25 39 0 14 2 15 9 4 6 -9 11 -10 15 -2 7
11 4 13 -29 15 -13 1 -19 7 -19 19 1 9 -2 17 -7 17 -5 0 -9 9 -9 20 0 11 -5
20 -11 20 -5 0 -8 4 -4 9 3 5 1 12 -4 15 -5 3 -12 -5 -15 -19 -7 -27 -26 -35
-26 -11 0 8 -10 15 -22 15 -13 0 -31 1 -40 1 -35 2 -72 100 -38 100 4 0 10 9
13 20 6 24 -16 27 -35 5z m156 -174 c4 -5 -1 -8 -9 -7 -21 3 -31 16 -12 16 9
0 18 -4 21 -9z"/>
<path d="M1463 1204 c3 -4 -1 -13 -9 -21 -8 -8 -12 -18 -9 -23 3 -5 0 -21 -7
-35 -10 -23 -10 -29 4 -39 9 -7 21 -28 26 -47 l9 -34 8 28 c4 17 3 39 -4 54
-8 17 -8 29 -2 37 6 7 8 25 6 41 -2 17 -4 33 -4 38 -1 4 -6 7 -13 7 -6 0 -9
-3 -5 -6z"/>
<path d="M3706 1193 c-6 -14 -5 -15 5 -6 7 7 10 15 7 18 -3 3 -9 -2 -12 -12z"/>
<path d="M1786 1193 c-11 -11 -6 -23 9 -23 8 0 15 4 15 9 0 13 -16 22 -24 14z"/>
<path d="M2115 1190 c-3 -5 -2 -10 4 -10 5 0 13 5 16 10 3 6 2 10 -4 10 -5 0
-13 -4 -16 -10z"/>
<path d="M2480 1196 c0 -2 6 -9 13 -15 10 -8 14 -7 14 4 0 8 -6 15 -14 15 -7
0 -13 -2 -13 -4z"/>
<path d="M4286 1189 c3 -6 1 -15 -6 -19 -8 -5 -10 -17 -6 -36 6 -22 9 -25 17
-13 5 7 9 24 9 37 0 12 6 22 13 22 8 0 7 4 -3 10 -20 13 -33 13 -24 -1z"/>
<path d="M1913 1141 c-2 -42 1 -50 22 -61 14 -8 34 -27 46 -44 18 -28 20 -29
13 -6 -12 48 -13 47 25 38 7 -1 15 2 17 7 2 6 -6 11 -18 12 -13 1 -24 7 -26
13 -2 6 -17 17 -33 25 -17 9 -29 24 -29 35 0 42 -15 25 -17 -19z"/>
<path d="M2074 1143 c5 -24 13 -43 17 -43 13 0 22 22 12 29 -17 11 -24 44 -11
52 9 6 6 8 -8 7 -19 -2 -20 -5 -10 -45z"/>
<path d="M2595 1180 c3 -5 8 -10 11 -10 2 0 4 5 4 10 0 6 -5 10 -11 10 -5 0
-7 -4 -4 -10z"/>
<path d="M2910 1180 c0 -5 5 -10 10 -10 6 0 10 5 10 10 0 6 -4 10 -10 10 -5 0
-10 -4 -10 -10z"/>
<path d="M3758 1167 c-25 -38 -26 -52 -7 -76 19 -23 19 -23 19 -2 0 27 -3 37
-11 34 -4 -1 -5 7 -2 17 3 11 12 20 19 20 16 0 19 16 5 24 -5 3 -15 -4 -23
-17z"/>
<path d="M2113 1163 c-15 -5 -17 -23 -4 -23 5 0 11 7 15 15 3 8 4 15 3 14 -1
0 -8 -3 -14 -6z"/>
<path d="M3672 1150 c0 -14 2 -19 5 -12 2 6 2 18 0 25 -3 6 -5 1 -5 -13z"/>
<path d="M4363 1141 c-12 -32 -8 -41 16 -41 13 0 13 2 2 9 -10 6 -11 13 -2 29
13 24 14 32 3 32 -4 0 -13 -13 -19 -29z"/>
<path d="M1842 1140 c0 -14 2 -19 5 -12 2 6 2 18 0 25 -3 6 -5 1 -5 -13z"/>
<path d="M3180 1140 c0 -5 5 -10 11 -10 5 0 7 5 4 10 -3 6 -8 10 -11 10 -2 0
-4 -4 -4 -10z"/>
<path d="M2369 1108 c-1 -18 0 -37 1 -43 1 -5 3 -15 3 -22 0 -7 5 -14 12 -16
12 -5 15 37 3 48 -4 4 -4 20 -1 36 3 18 1 29 -6 29 -6 0 -12 -15 -12 -32z"/>
<path d="M1326 1123 c-10 -11 -7 -23 8 -23 7 0 18 -15 24 -32 9 -31 10 -31 11
-7 1 27 -31 74 -43 62z"/>
<path d="M3525 1110 c-3 -5 1 -10 9 -10 9 0 16 5 16 10 0 6 -4 10 -9 10 -6 0
-13 -4 -16 -10z"/>
<path d="M1810 1100 c0 -5 5 -10 10 -10 6 0 10 5 10 10 0 6 -4 10 -10 10 -5 0
-10 -4 -10 -10z"/>
<path d="M2711 1064 c0 -11 3 -14 6 -6 3 7 2 16 -1 19 -3 4 -6 -2 -5 -13z"/>
<path d="M3201 1054 c0 -11 3 -14 6 -6 3 7 2 16 -1 19 -3 4 -6 -2 -5 -13z"/>
<path d="M4346 1054 c-4 -10 -1 -14 6 -12 15 5 23 28 10 28 -5 0 -13 -7 -16
-16z"/>
<path d="M1385 1051 c-3 -5 -1 -12 5 -16 5 -3 10 1 10 9 0 18 -6 21 -15 7z"/>
<path d="M3777 1053 c-3 -7 -3 -16 1 -50 1 -7 9 -10 17 -7 11 5 17 -3 21 -24
6 -31 42 -78 51 -68 9 9 -6 38 -17 31 -6 -3 -10 4 -10 16 0 12 -10 37 -22 56
l-21 35 24 -6 24 -7 -25 15 c-29 17 -37 19 -43 9z"/>
<path d="M4252 1035 c-11 -13 -9 -15 8 -15 11 0 20 7 20 15 0 19 -11 19 -28 0z"/>
<path d="M3250 1030 c0 -5 5 -10 11 -10 5 0 7 5 4 10 -3 6 -8 10 -11 10 -2 0
-4 -4 -4 -10z"/>
<path d="M2015 1020 c3 -5 8 -10 11 -10 2 0 4 5 4 10 0 6 -5 10 -11 10 -5 0
-7 -4 -4 -10z"/>
<path d="M2120 1019 c0 -5 5 -7 10 -4 6 3 10 8 10 11 0 2 -4 4 -10 4 -5 0 -10
-5 -10 -11z"/>
<path d="M3966 978 c1 -29 -3 -56 -9 -59 -5 -4 -6 -12 -2 -19 5 -8 12 -7 26 6
28 26 25 124 -5 124 -7 0 -11 -19 -10 -52z"/>
<path d="M1390 1001 c0 -12 5 -21 10 -21 6 0 10 6 10 14 0 8 -4 18 -10 21 -5
3 -10 -3 -10 -14z"/>
<path d="M3894 998 c-11 -35 -11 -69 1 -65 5 3 9 16 8 31 -1 14 2 26 8 26 5 0
9 7 9 15 0 23 -18 18 -26 -7z"/>
<path d="M2740 980 c0 -18 4 -29 10 -25 6 3 10 15 10 25 0 10 -4 22 -10 25 -6
4 -10 -7 -10 -25z"/>
<path d="M2915 1000 c3 -5 8 -10 11 -10 2 0 4 5 4 10 0 6 -5 10 -11 10 -5 0
-7 -4 -4 -10z"/>
<path d="M1963 993 c-7 -3 -13 -12 -13 -21 0 -15 2 -15 17 1 18 18 16 27 -4
20z"/>
<path d="M2370 976 c0 -14 5 -26 10 -26 6 0 15 -10 20 -22 6 -16 9 -18 9 -7 1
9 -6 22 -14 29 -9 7 -14 19 -11 26 3 7 1 16 -4 19 -6 4 -10 -5 -10 -19z"/>
<path d="M3540 990 c0 -5 5 -10 11 -10 5 0 7 5 4 10 -3 6 -8 10 -11 10 -2 0
-4 -4 -4 -10z"/>
<path d="M1502 978 c-16 -16 -15 -28 3 -28 8 0 15 9 15 20 0 23 -2 24 -18 8z"/>
<path d="M1400 954 c0 -8 5 -12 10 -9 6 3 10 10 10 16 0 5 -4 9 -10 9 -5 0
-10 -7 -10 -16z"/>
<path d="M2327 957 c-3 -7 1 -21 9 -32 13 -17 14 -17 14 13 0 32 -14 43 -23
19z"/>
<path d="M3727 963 c-4 -3 -7 -11 -7 -17 0 -6 5 -5 12 2 6 6 9 14 7 17 -3 3
-9 2 -12 -2z"/>
<path d="M3528 953 c6 -2 18 -2 25 0 6 3 1 5 -13 5 -14 0 -19 -2 -12 -5z"/>
<path d="M4040 950 c0 -5 5 -10 10 -10 6 0 10 5 10 10 0 6 -4 10 -10 10 -5 0
-10 -4 -10 -10z"/>
<path d="M3507 934 c-3 -3 -3 -13 0 -22 5 -11 2 -14 -10 -9 -11 4 -17 1 -17
-8 0 -32 49 0 50 33 0 13 -12 16 -23 6z"/>
<path d="M3595 930 c-3 -5 -1 -18 4 -27 9 -16 10 -14 11 10 0 28 -5 34 -15 17z"/>
<path d="M2122 918 c2 -6 10 -14 16 -16 7 -2 10 2 6 12 -7 18 -28 22 -22 4z"/>
<path d="M3763 906 c7 -14 13 -23 15 -21 7 6 -9 45 -18 45 -4 0 -3 -11 3 -24z"/>
<path d="M2157 907 c-10 -26 12 -45 43 -36 l25 7 -27 1 c-20 1 -27 7 -30 24
-3 20 -4 20 -11 4z"/>
<path d="M1441 894 c0 -11 3 -14 6 -6 3 7 2 16 -1 19 -3 4 -6 -2 -5 -13z"/>
<path d="M4040 891 c0 -11 5 -23 10 -26 6 -3 10 3 10 14 0 11 -4 23 -10 26 -5
3 -10 -3 -10 -14z"/>
<path d="M2780 881 c0 -10 30 -24 37 -17 3 2 -5 9 -16 16 -12 6 -21 7 -21 1z"/>
<path d="M3450 880 c0 -5 -3 -9 -7 -9 -5 1 -12 0 -18 -1 -5 -2 -48 -3 -94 -4
-58 -1 -86 -5 -88 -13 -6 -17 46 -37 61 -24 6 5 36 13 66 16 57 7 100 22 100
37 0 4 -4 8 -10 8 -5 0 -10 -4 -10 -10z"/>
<path d="M1621 871 c-18 -12 -7 -41 16 -41 14 0 15 2 4 9 -8 5 -11 16 -8 25 7
18 7 19 -12 7z"/>
<path d="M3955 870 c3 -5 12 -7 20 -3 21 7 19 13 -6 13 -11 0 -18 -4 -14 -10z"/>
<path d="M2313 864 c3 -3 -3 -14 -14 -25 -20 -20 -25 -54 -9 -64 6 -4 9 3 7
17 -1 15 4 23 17 26 16 3 18 -1 14 -27 -3 -18 -1 -34 4 -37 4 -3 8 -16 8 -29
0 -13 4 -26 9 -29 15 -10 3 144 -13 160 -8 8 -18 14 -22 14 -4 0 -5 -3 -1 -6z"/>
<path d="M1883 844 c-7 -20 8 -48 28 -52 10 -2 14 5 14 21 -2 43 -29 64 -42
31z"/>
<path d="M2196 850 c-17 -6 -18 -7 -3 -13 9 -3 19 -2 23 4 9 15 2 18 -20 9z"/>
<path d="M2810 840 c-9 -6 -10 -10 -3 -10 6 0 15 5 18 10 8 12 4 12 -15 0z"/>
<path d="M3938 839 c-20 -11 -23 -35 -8 -75 15 -40 32 -17 28 39 -3 40 -5 45
-20 36z"/>
<path d="M3521 818 c-1 -16 4 -28 9 -28 12 0 12 8 0 35 -8 18 -9 17 -9 -7z"/>
<path d="M4016 825 c-3 -9 0 -15 9 -15 16 0 20 16 6 24 -5 3 -11 -1 -15 -9z"/>
<path d="M3360 814 c0 -12 -7 -24 -15 -28 -17 -6 -21 -56 -5 -56 6 0 10 8 10
17 0 9 7 24 16 34 12 13 13 22 5 36 -10 17 -10 16 -11 -3z"/>
<path d="M3495 820 c3 -5 8 -10 11 -10 2 0 4 5 4 10 0 6 -5 10 -11 10 -5 0 -7
-4 -4 -10z"/>
<path d="M1650 805 c0 -10 35 -45 45 -45 3 0 5 7 5 15 0 8 5 15 12 15 9 0 9 3
0 13 -16 15 -62 17 -62 2z"/>
<path d="M3257 807 c-3 -8 -1 -20 4 -28 6 -10 9 -7 9 14 0 29 -5 35 -13 14z"/>
<path d="M4102 795 c0 -16 2 -22 5 -12 2 9 2 23 0 30 -3 6 -5 -1 -5 -18z"/>
<path d="M1789 807 c0 -1 -3 -14 -5 -29 -6 -35 13 -47 22 -13 3 14 11 25 17
25 15 0 0 13 -18 16 -8 1 -15 2 -16 1z"/>
<path d="M2773 796 c0 -8 8 -14 18 -13 10 1 16 4 13 8 -2 4 2 10 8 12 7 3 1 6
-13 6 -16 1 -26 -4 -26 -13z"/>
<path d="M1940 790 c0 -5 5 -10 10 -10 6 0 10 5 10 10 0 6 -4 10 -10 10 -5 0
-10 -4 -10 -10z"/>
<path d="M2666 792 c-3 -5 8 -6 25 -4 16 2 29 6 29 8 0 8 -49 4 -54 -4z"/>
<path d="M3281 778 c0 -16 2 -18 6 -8 3 8 11 18 17 22 7 5 4 8 -6 8 -12 0 -18
-7 -17 -22z"/>
<path d="M2066 782 c6 -4 14 -14 17 -22 4 -10 6 -8 6 8 1 15 -5 22 -16 22 -11
0 -14 -3 -7 -8z"/>
<path d="M1865 760 c-3 -5 1 -10 10 -10 9 0 13 5 10 10 -3 6 -8 10 -10 10 -2
0 -7 -4 -10 -10z"/>
<path d="M3596 755 c-3 -9 -6 -22 -5 -28 0 -7 5 -1 10 12 5 13 8 26 5 28 -2 2
-6 -3 -10 -12z"/>
<path d="M4030 760 c0 -5 5 -10 10 -10 6 0 10 5 10 10 0 6 -4 10 -10 10 -5 0
-10 -4 -10 -10z"/>
<path d="M2291 723 c1 -45 9 -67 28 -71 10 -2 12 3 6 20 -4 13 -9 38 -12 56
-7 44 -23 41 -22 -5z"/>
<path d="M2838 745 c-3 -3 -51 -7 -106 -8 -92 -2 -137 -13 -104 -24 17 -7 15
-23 -4 -23 -8 0 -13 4 -10 8 8 13 -11 35 -23 28 -6 -4 -9 -12 -6 -17 7 -10 -8
-12 -18 -2 -4 3 -41 7 -81 8 -63 1 -75 -2 -79 -16 -6 -23 29 -32 48 -13 13 13
18 13 40 -2 14 -9 34 -14 45 -11 11 3 20 2 20 -2 0 -13 134 11 153 27 11 9 17
11 17 4 0 -7 15 -12 35 -12 19 0 35 5 35 10 0 6 8 2 18 -7 15 -16 26 -70 23
-115 -2 -36 -2 -74 0 -123 1 -32 -2 -49 -9 -48 -6 2 -14 -7 -18 -20 -11 -35
-10 -84 2 -84 6 0 9 12 7 26 -4 24 -3 25 10 9 22 -28 30 -21 23 17 -4 19 -3
35 1 35 5 0 7 19 5 41 -3 29 -1 40 7 35 7 -5 11 2 11 18 0 14 -4 26 -10 26 -5
0 -9 16 -8 35 1 19 5 32 10 29 4 -3 8 2 8 10 0 9 -5 16 -11 16 -8 0 -8 5 1 15
7 8 9 15 4 15 -4 0 1 7 12 15 19 14 19 15 -3 21 -25 7 -30 20 -11 26 10 4 10
10 1 31 -12 26 -24 33 -35 22z"/>
<path d="M3285 740 c-3 -5 1 -10 10 -10 9 0 13 5 10 10 -3 6 -8 10 -10 10 -2
0 -7 -4 -10 -10z"/>
<path d="M3848 733 c7 -3 16 -2 19 1 4 3 -2 6 -13 5 -11 0 -14 -3 -6 -6z"/>
<path d="M1940 715 c0 -8 2 -15 4 -15 2 0 6 7 10 15 3 8 1 15 -4 15 -6 0 -10
-7 -10 -15z"/>
<path d="M2960 715 c0 -9 6 -12 15 -9 8 4 15 7 15 9 0 2 -7 5 -15 9 -9 3 -15
0 -15 -9z"/>
<path d="M3940 714 c0 -8 5 -12 10 -9 6 4 8 11 5 16 -9 14 -15 11 -15 -7z"/>
<path d="M4007 718 c-3 -9 3 -14 14 -14 11 0 18 5 16 10 -5 16 -24 18 -30 4z"/>
<path d="M3100 711 c-20 -8 -25 -50 -7 -57 9 -3 12 -14 9 -30 -3 -16 0 -24 9
-24 9 0 10 -3 3 -8 -16 -11 -27 -105 -11 -96 9 6 9 5 0 -8 -7 -8 -11 -17 -9
-19 2 -2 1 -23 -3 -46 -6 -33 -5 -40 6 -36 7 3 13 11 13 18 0 8 4 17 10 20 5
3 7 0 4 -8 -5 -14 43 -43 54 -32 3 3 0 5 -6 5 -7 0 -12 6 -12 14 0 7 -8 24
-19 37 -10 13 -17 37 -16 54 1 17 -3 36 -8 43 -6 8 -6 12 0 12 6 0 9 23 8 53
-1 28 1 57 5 62 20 28 0 59 -30 46z"/>
<path d="M3296 678 c2 -50 3 -53 13 -42 4 5 11 24 14 42 5 26 3 32 -11 32 -14
0 -18 -7 -16 -32z"/>
<path d="M3570 696 c0 -8 9 -24 20 -37 l19 -24 1 25 c0 14 -4 30 -8 35 -11 16
-32 16 -32 1z"/>
<path d="M1822 678 c-7 -9 -7 -18 3 -31 12 -16 13 -16 18 5 8 27 -6 44 -21 26z"/>
<path d="M1920 669 c0 -4 7 -9 15 -13 9 -3 15 0 15 8 0 7 -7 13 -15 13 -8 0
-15 -4 -15 -8z"/>
<path d="M1710 653 c0 -5 4 -14 9 -21 7 -11 9 -11 14 1 3 8 3 18 0 21 -9 8
-23 7 -23 -1z"/>
<path d="M2610 622 c0 -15 5 -33 11 -39 7 -7 5 -15 -6 -27 -9 -9 -12 -16 -7
-16 5 0 12 -11 14 -25 3 -14 2 -25 -2 -25 -6 0 -30 -44 -30 -55 0 -3 7 -5 15
-5 8 0 15 -4 15 -10 0 -5 -12 -10 -26 -10 -23 0 -24 -1 -10 -16 9 -8 20 -12
26 -9 6 4 10 -7 11 -27 0 -30 2 -28 14 17 7 28 10 55 6 60 -5 6 -5 49 -2 96 7
100 5 119 -15 119 -9 0 -14 -10 -14 -28z"/>
<path d="M3280 568 c0 -42 5 -80 10 -83 6 -3 10 -23 10 -43 0 -26 3 -33 9 -23
5 8 8 28 6 45 -2 17 -1 25 2 19 9 -24 20 -13 15 17 -2 17 -9 30 -14 30 -5 0
-6 5 -2 11 4 6 8 29 9 51 2 28 -1 38 -10 34 -7 -2 -18 1 -24 7 -8 8 -11 -9
-11 -65z"/>
<path d="M3160 583 c0 -5 5 -15 10 -23 8 -12 10 -11 10 8 0 12 -4 22 -10 22
-5 0 -10 -3 -10 -7z"/>
<path d="M3612 520 c0 -19 2 -27 5 -17 2 9 2 25 0 35 -3 9 -5 1 -5 -18z"/>
<path d="M3220 499 c0 -11 5 -17 10 -14 6 3 10 13 10 21 0 8 -4 14 -10 14 -5
0 -10 -9 -10 -21z"/>
<path d="M2265 480 c-3 -5 -1 -10 4 -10 6 0 11 5 11 10 0 6 -2 10 -4 10 -3 0
-8 -4 -11 -10z"/>
<path d="M2335 480 c-3 -5 1 -10 9 -10 9 0 16 5 16 10 0 6 -4 10 -9 10 -6 0
-13 -4 -16 -10z"/>
<path d="M3190 476 c0 -2 7 -7 16 -10 8 -3 12 -2 9 4 -6 10 -25 14 -25 6z"/>
<path d="M2305 450 c-3 -5 -1 -10 4 -10 6 0 11 5 11 10 0 6 -2 10 -4 10 -3 0
-8 -4 -11 -10z"/>
<path d="M2336 452 c-3 -6 -1 -14 5 -17 15 -10 25 3 12 16 -7 7 -13 7 -17 1z"/>
<path d="M2349 410 c0 -8 -2 -25 -5 -38 -2 -13 0 -21 5 -18 14 9 19 42 10 57
-7 12 -9 11 -10 -1z"/>
<path d="M3330 397 c0 -8 7 -17 15 -21 8 -3 15 -3 15 0 0 3 -7 12 -15 20 -13
13 -15 13 -15 1z"/>
<path d="M2563 383 c4 -3 2 -13 -5 -20 -8 -10 -8 -17 -1 -21 5 -4 13 -14 16
-22 3 -8 6 4 6 28 1 26 -3 42 -11 42 -6 0 -8 -3 -5 -7z"/>
<path d="M3069 353 c0 -10 -2 -26 -4 -35 -6 -30 12 -20 24 13 14 40 14 39 -4
39 -8 0 -15 -8 -16 -17z"/>
<path d="M2545 310 c-3 -5 -1 -10 4 -10 6 0 11 5 11 10 0 6 -2 10 -4 10 -3 0
-8 -4 -11 -10z"/>
<path d="M2636 312 c-3 -6 -1 -14 5 -17 14 -9 20 -2 10 14 -6 8 -11 9 -15 3z"/>
<path d="M2850 269 c0 -22 4 -38 8 -35 12 7 13 76 2 76 -6 0 -10 -18 -10 -41z"/>
<path d="M2598 223 c7 -3 16 -2 19 1 4 3 -2 6 -13 5 -11 0 -14 -3 -6 -6z"/>
</g>
</svg>
