<?xml version="1.0" standalone="no"?>
<!DOCTYPE svg PUBLIC "-//W3C//DTD SVG 20010904//EN"
 "http://www.w3.org/TR/2001/REC-SVG-20010904/DTD/svg10.dtd">
<svg version="1.0" xmlns="http://www.w3.org/2000/svg"
 width="500.000000pt" height="500.000000pt" viewBox="0 0 500.000000 500.000000"
 preserveAspectRatio="xMidYMid meet">
<g transform="translate(0.000000,500.000000) scale(0.100000,-0.100000)"
fill="#000000" stroke="none">
<path d="M110 4990 c-14 -4 -44 -8 -67 -9 l-43 -1 0 -70 c0 -77 -1 -76 38 -56
16 8 78 16 151 19 109 5 125 8 138 27 8 11 25 20 38 20 13 0 30 9 38 21 9 12
18 16 21 10 9 -14 36 -3 65 26 l24 23 -189 -1 c-104 -1 -200 -5 -214 -9z"/>
<path d="M680 4961 c0 -29 4 -40 17 -43 17 -3 29 -78 12 -78 -4 0 -6 -84 -6
-187 2 -144 5 -187 15 -185 6 1 12 -5 12 -13 0 -8 -4 -15 -9 -15 -5 0 -7 -24
-4 -52 3 -29 7 -201 9 -383 3 -314 5 -359 19 -500 3 -33 7 -160 7 -282 1 -123
5 -223 9 -223 5 0 9 -57 9 -127 0 -186 9 -396 20 -493 5 -47 8 -113 5 -148 -3
-51 3 -134 17 -217 1 -5 -1 -28 -5 -50 -3 -22 -3 -32 -1 -22 13 42 19 8 20
-106 0 -80 5 -130 14 -146 l13 -24 12 29 c8 16 14 22 14 14 1 -11 5 -10 21 5
24 25 51 166 33 172 -10 4 -10 7 0 18 7 7 15 11 20 8 15 -9 6 10 -10 23 -17
12 -17 13 0 20 17 6 17 8 1 25 -11 12 -17 38 -18 84 0 36 -3 65 -6 65 -3 0 -5
28 -6 63 0 34 -4 92 -7 129 -4 40 -3 70 3 73 18 11 11 35 -10 35 -20 0 -26 11
-13 24 4 3 8 32 10 64 2 31 8 58 13 60 5 2 4 16 -2 33 -8 23 -7 37 2 55 11 20
11 27 -3 42 -35 38 -11 101 33 89 11 -3 23 0 26 5 4 7 -6 9 -30 6 -25 -3 -36
0 -36 9 0 7 -5 13 -12 13 -8 0 -9 3 -1 11 14 14 5 231 -10 241 -9 6 -9 8 1 8
6 0 12 7 12 16 0 8 -4 13 -9 10 -17 -11 -19 35 -4 74 14 36 20 40 50 40 33 0
33 1 33 45 0 48 -20 61 -49 33 -10 -10 -15 -10 -18 -1 -2 7 -11 9 -19 6 -16
-6 -19 12 -4 22 17 10 12 125 -5 131 -8 4 -15 14 -15 24 0 10 -6 21 -12 24
-10 5 -10 7 0 12 6 3 12 17 12 30 0 13 4 24 9 24 4 0 6 11 3 25 -2 14 0 25 6
25 6 0 12 -12 14 -27 2 -16 4 6 4 47 1 71 0 73 -9 33 -12 -51 -28 -57 -26 -10
2 44 30 137 41 137 5 0 18 -5 29 -10 13 -8 19 -7 19 1 0 6 -9 13 -20 16 -11 3
-18 9 -15 13 13 20 -27 34 -42 15 -15 -19 -15 -19 -9 5 4 14 8 31 8 37 1 7 4
11 6 8 3 -3 11 3 18 13 9 13 9 19 1 24 -8 5 -8 11 -2 16 14 10 17 32 5 32 -6
0 -10 8 -10 18 0 9 -7 30 -15 46 -19 36 -19 50 -1 43 20 -8 22 17 15 133 -8
108 -5 115 48 105 21 -5 31 -10 23 -12 -16 -4 -41 -49 -32 -58 14 -13 34 -4
29 14 -4 15 2 22 25 30 52 18 33 46 -32 47 -131 2 -137 3 -137 22 0 22 34 52
61 53 18 0 18 1 4 7 -20 8 -12 24 18 40 19 10 21 16 12 54 -5 24 -11 64 -15
90 -7 56 -18 55 -27 -2 -3 -22 -11 -40 -16 -40 -6 0 -10 -7 -10 -15 0 -32 -28
-13 -39 28 -12 41 -9 275 3 295 8 14 45 22 52 11 7 -12 34 -12 34 0 0 5 -7 17
-16 26 -11 10 -15 27 -12 50 l4 35 -88 0 -88 0 0 -39z m90 -116 c0 -3 -2 -5
-5 -5 -3 0 -5 2 -5 5 0 3 2 5 5 5 3 0 5 -2 5 -5z m50 -339 c0 -8 -4 -18 -10
-21 -5 -3 -10 3 -10 14 0 12 5 21 10 21 6 0 10 -6 10 -14z m14 -51 c3 -8 1
-15 -4 -15 -6 0 -10 7 -10 15 0 8 2 15 4 15 2 0 6 -7 10 -15z m-74 0 c0 -3 -2
-5 -5 -5 -3 0 -5 2 -5 5 0 3 2 5 5 5 3 0 5 -2 5 -5z m0 -180 c0 -3 -2 -5 -5
-5 -3 0 -5 2 -5 5 0 3 2 5 5 5 3 0 5 -2 5 -5z m-3 -297 c-2 -13 -4 -3 -4 22 0
25 2 35 4 23 2 -13 2 -33 0 -45z m100 -15 c-4 -3 -7 0 -7 7 0 7 3 10 7 7 3 -4
3 -10 0 -14z m-17 2 c0 -3 -2 -5 -5 -5 -3 0 -5 2 -5 5 0 3 2 5 5 5 3 0 5 -2 5
-5z m-10 -122 c0 -7 -4 -13 -10 -13 -5 0 -10 12 -10 28 0 28 19 13 20 -15z
m-73 -30 c-3 -10 -5 -4 -5 12 0 17 2 24 5 18 2 -7 2 -21 0 -30z m93 -498 c0
-3 -2 -5 -5 -5 -3 0 -5 2 -5 5 0 3 2 5 5 5 3 0 5 -2 5 -5z m57 -72 c-4 -3 -10
-3 -14 0 -3 4 0 7 7 7 7 0 10 -3 7 -7z m-27 -328 c0 -3 -2 -5 -5 -5 -3 0 -5 2
-5 5 0 3 2 5 5 5 3 0 5 -2 5 -5z m-13 -492 c-4 -3 -7 0 -7 7 0 7 3 10 7 7 3
-4 3 -10 0 -14z m0 -50 c-4 -3 -7 0 -7 7 0 7 3 10 7 7 3 -4 3 -10 0 -14z m20
-330 c-4 -3 -7 0 -7 7 0 7 3 10 7 7 3 -4 3 -10 0 -14z"/>
<path d="M1680 4985 c32 -18 40 -18 40 0 0 10 -10 15 -32 15 l-33 -1 25 -14z"/>
<path d="M3710 4991 c0 -13 30 -22 51 -16 31 10 21 25 -16 25 -19 0 -35 -4
-35 -9z"/>
<path d="M3965 4990 c3 -5 12 -10 20 -10 8 0 17 5 20 10 4 6 -5 10 -20 10 -15
0 -24 -4 -20 -10z"/>
<path d="M4020 4995 c0 -3 2 -5 5 -5 3 0 5 2 5 5 0 3 -2 5 -5 5 -3 0 -5 -2 -5
-5z"/>
<path d="M4141 4984 c0 -11 3 -14 6 -6 3 7 2 16 -1 19 -3 4 -6 -2 -5 -13z"/>
<path d="M4190 4995 c0 -3 2 -5 5 -5 3 0 5 2 5 5 0 3 -2 5 -5 5 -3 0 -5 -2 -5
-5z"/>
<path d="M4225 4990 c3 -5 8 -10 11 -10 2 0 4 5 4 10 0 6 -5 10 -11 10 -5 0
-7 -4 -4 -10z"/>
<path d="M4380 4968 c0 -18 -2 -42 -4 -53 -2 -11 -1 -14 1 -7 3 6 20 12 38 12
38 0 40 2 50 48 l7 32 -46 0 c-45 0 -46 -1 -46 -32z"/>
<path d="M3920 4969 c0 -24 23 -21 28 4 2 10 -3 17 -12 17 -10 0 -16 -9 -16
-21z"/>
<path d="M2160 4880 c0 -22 5 -40 10 -40 6 0 10 18 10 40 0 22 -4 40 -10 40
-5 0 -10 -18 -10 -40z"/>
<path d="M2848 4907 c-32 -6 -58 -14 -58 -19 0 -4 -17 -8 -37 -8 -21 0 -56 -7
-78 -16 -22 -8 -48 -17 -57 -21 -10 -3 -18 -10 -18 -16 0 -6 -2 -8 -5 -5 -3 3
-20 -8 -38 -24 -26 -25 -65 -49 -87 -52 -11 -2 -90 -70 -90 -78 0 -9 -14 -26
-72 -87 -21 -22 -38 -49 -38 -60 0 -11 -10 -30 -22 -41 -13 -12 -23 -30 -23
-40 0 -11 -4 -21 -10 -22 -12 -3 -32 -59 -41 -115 -3 -24 -10 -41 -14 -38 -11
7 -28 -47 -38 -126 -16 -131 0 -538 24 -576 8 -12 14 -30 14 -40 0 -10 6 -30
14 -44 7 -14 16 -47 20 -72 4 -25 13 -50 20 -57 8 -6 17 -31 21 -56 3 -24 15
-69 25 -99 10 -29 16 -56 13 -59 -3 -3 2 -8 11 -12 9 -3 16 -11 16 -18 0 -6 9
-19 20 -29 11 -9 20 -24 20 -32 0 -8 4 -23 9 -33 5 -9 19 -37 32 -62 31 -61
34 -69 54 -117 10 -23 24 -44 31 -47 8 -3 14 -12 14 -21 0 -8 4 -15 8 -15 4 0
13 -12 20 -27 6 -16 22 -44 34 -63 28 -42 34 -233 10 -263 -8 -9 -11 -21 -7
-27 4 -6 2 -16 -3 -23 -5 -7 -13 -36 -17 -64 -4 -29 -11 -55 -15 -58 -4 -3
-11 -28 -15 -55 -4 -29 -12 -50 -19 -50 -7 0 -20 -17 -30 -37 -40 -86 -98
-157 -137 -166 -14 -4 -42 -17 -61 -31 -20 -13 -39 -22 -42 -19 -6 6 -48 -8
-121 -42 -27 -13 -79 -31 -115 -41 -36 -10 -67 -20 -70 -23 -6 -8 -96 -33
-135 -38 -150 -18 -201 -27 -210 -33 -5 -4 -29 -8 -53 -8 -24 -1 -49 -5 -55
-10 -7 -5 -19 -9 -27 -10 -74 -1 -182 -12 -197 -20 -10 -6 -58 -18 -106 -28
-49 -9 -91 -23 -94 -30 -3 -7 -30 -20 -60 -29 -61 -18 -62 -19 -136 -89 -29
-26 -63 -55 -75 -64 -13 -8 -28 -26 -33 -40 -5 -13 -18 -26 -29 -29 -11 -3
-20 -10 -20 -15 0 -6 -8 -22 -18 -36 -10 -15 -28 -61 -41 -102 -12 -41 -28
-88 -36 -105 -7 -16 -16 -48 -20 -69 -4 -22 -15 -51 -26 -64 -10 -14 -19 -31
-19 -39 0 -7 -7 -16 -15 -19 -8 -4 -15 -11 -15 -18 0 -6 -10 -23 -23 -38 -28
-34 -48 -60 -67 -89 -8 -12 -25 -33 -37 -47 -13 -14 -23 -29 -23 -33 0 -12
-64 -69 -97 -86 -41 -22 -112 -22 -124 0 -23 40 -109 -80 -109 -153 l0 -51 35
3 c19 1 37 -1 41 -5 4 -4 -11 -7 -34 -7 -31 0 -42 -4 -42 -15 0 -19 194 -21
255 -3 l40 13 -70 5 -70 5 78 9 c43 5 81 6 84 3 8 -8 111 65 153 108 32 33 33
35 11 35 -22 0 -22 0 6 30 22 24 29 27 33 14 6 -17 36 23 129 173 52 84 59
103 40 103 -5 0 -7 5 -3 11 5 8 9 8 14 -1 4 -7 15 3 28 29 17 32 18 41 8 41
-10 0 -6 16 15 57 16 31 29 67 29 80 0 13 5 23 10 23 6 0 10 -10 10 -22 0 -17
11 -4 39 43 34 55 87 112 153 165 8 7 39 25 68 42 l53 30 -34 4 -34 4 35 16
c33 16 35 15 38 -2 3 -17 5 -17 61 0 31 10 133 30 227 44 185 29 498 90 535
105 19 8 11 10 -41 12 -36 1 -56 3 -45 6 11 2 71 20 134 39 75 23 127 34 150
31 63 -7 242 75 206 95 -21 12 -3 28 33 28 13 0 22 6 22 15 0 10 10 15 29 15
33 0 66 29 35 31 -11 1 -6 5 11 9 17 4 23 8 13 9 -11 1 -15 7 -11 21 3 10 10
18 16 17 6 -1 18 12 27 28 8 17 25 40 38 53 l22 22 0 -22 c0 -18 6 -13 27 22
28 49 133 297 133 316 0 7 9 33 20 58 17 40 17 46 4 46 -24 0 -11 24 17 31 23
7 23 7 2 8 -17 1 -21 5 -16 18 14 41 24 44 52 14 29 -31 74 -36 79 -8 4 22 18
22 31 -1 10 -16 10 -16 11 2 0 12 5 16 14 13 10 -4 13 -1 9 9 -6 17 -64 19
-81 2 -9 -9 -12 -8 -12 5 0 20 78 25 98 5 8 -8 15 -8 24 0 8 6 19 7 26 3 7 -4
41 -3 75 2 34 5 77 9 96 9 19 0 29 3 22 7 -19 12 5 25 86 50 78 23 103 26 103
12 0 -5 8 -12 18 -14 10 -3 6 -5 -10 -6 -24 -1 -28 -5 -28 -31 0 -17 5 -30 12
-30 9 0 9 -3 0 -12 -7 -7 -12 -17 -12 -22 0 -6 5 -3 11 7 17 30 39 21 29 -12
-7 -27 -5 -31 23 -42 17 -7 25 -15 19 -17 -6 -2 -9 -9 -6 -16 8 -21 -23 -39
-61 -34 -43 5 -45 -3 -5 -20 17 -8 28 -18 24 -23 -3 -5 0 -9 6 -9 6 0 15 -12
21 -27 10 -26 11 -27 21 -9 9 16 15 8 45 -59 24 -56 31 -80 22 -85 -14 -9 66
-130 140 -210 44 -49 50 -52 51 -31 0 31 30 10 31 -23 0 -11 3 -15 6 -8 4 10
8 10 19 1 11 -9 14 -9 14 1 0 9 3 10 13 1 8 -6 17 -9 20 -6 4 3 5 2 2 -1 -11
-16 17 -44 46 -44 17 0 40 -5 52 -12 12 -7 27 -12 32 -13 17 -1 85 -38 85 -46
0 -4 -9 -11 -21 -14 -36 -12 -12 -18 74 -20 46 -1 88 -5 95 -8 6 -4 40 -8 76
-8 52 -1 64 -4 59 -15 -3 -8 -17 -14 -32 -15 l-26 0 24 -12 c19 -9 25 -9 29 1
2 6 20 12 39 12 27 0 34 -3 30 -15 -5 -11 1 -13 26 -9 25 3 28 2 12 -5 -17 -8
-13 -10 20 -11 32 -1 36 -3 20 -10 -15 -6 -6 -9 32 -9 28 -1 55 -6 59 -12 4
-8 -10 -10 -47 -8 -78 3 -109 0 -109 -11 0 -5 19 -10 43 -11 23 0 60 -4 82 -8
32 -7 21 -9 -55 -9 -103 0 -158 10 -128 23 9 4 21 4 26 2 4 -3 13 3 20 13 14
23 -2 30 -61 29 -30 0 -37 -3 -23 -8 26 -10 -29 -31 -83 -31 l-36 -1 43 -21
c35 -17 48 -19 68 -10 19 9 24 9 24 -2 0 -15 152 -29 158 -14 2 4 28 8 58 8
47 0 55 3 53 18 -3 31 1 43 11 37 6 -3 10 -2 10 4 0 6 8 15 18 20 16 9 18 6
14 -21 -3 -19 1 -33 9 -39 17 -11 39 -12 38 -1 -4 24 4 29 39 25 20 -3 49 -5
65 -4 15 0 27 -4 27 -10 0 -6 4 -8 9 -4 5 3 12 -4 16 -15 4 -11 16 -20 28 -21
20 -1 20 -2 -3 -8 -23 -7 70 -31 118 -31 8 0 12 32 12 105 l0 105 -27 11 c-16
7 -37 15 -48 19 -11 5 -31 11 -45 14 -14 2 -63 16 -110 30 -51 15 -125 28
-185 32 -55 3 -103 8 -107 11 -4 2 -51 10 -104 18 -53 8 -102 19 -108 24 -6 5
-34 15 -61 22 -28 6 -54 15 -60 19 -5 4 -23 10 -40 14 -16 4 -70 32 -120 62
-126 78 -154 97 -155 110 0 6 -12 20 -26 30 -59 43 -84 73 -84 99 0 15 -6 41
-13 58 -28 65 -40 112 -42 167 -1 32 -5 61 -8 66 -10 17 -22 150 -20 229 3 93
35 207 70 245 12 14 28 41 34 60 7 19 24 53 38 75 44 66 50 78 77 135 14 30
30 58 35 61 5 3 12 23 16 45 3 21 12 46 19 54 7 9 18 47 24 85 6 39 20 110 31
158 20 91 26 388 9 412 -4 6 -10 24 -13 40 -12 72 -40 191 -47 200 -4 6 -11
26 -15 45 -20 93 -70 220 -92 233 -7 4 -13 12 -13 18 0 36 -236 234 -303 255
-12 3 -31 14 -42 23 -22 19 -89 41 -124 41 -12 0 -45 12 -74 26 -58 30 -299
42 -419 21z m-163 -196 c3 -5 1 -13 -5 -16 -15 -9 -43 3 -35 15 8 13 32 13 40
1z m452 -43 c2 -5 26 -8 53 -8 27 0 52 -4 55 -10 3 -5 23 -10 43 -10 21 0 46
-6 57 -14 11 -7 33 -16 50 -20 122 -30 282 -166 342 -291 128 -270 123 -815
-10 -1055 -17 -30 -39 -71 -48 -90 -10 -19 -29 -48 -43 -64 -14 -16 -26 -34
-26 -39 0 -39 -101 -217 -123 -217 -6 0 -17 -7 -26 -15 -45 -43 -105 -85 -120
-85 -10 0 -30 -16 -45 -35 -15 -19 -36 -37 -47 -40 -10 -4 -19 -13 -19 -21 0
-10 -12 -14 -40 -14 -28 0 -40 4 -40 14 0 16 -135 12 -156 -5 -33 -27 -154 46
-154 94 0 8 -10 17 -21 20 -17 5 -20 11 -15 30 3 14 0 42 -8 63 -12 36 -16 39
-52 40 -74 2 -72 0 -67 48 3 26 1 46 -6 50 -7 5 -11 -2 -11 -16 -1 -20 -2 -21
-11 -6 -16 27 0 103 17 81 11 -16 13 -10 12 44 0 72 16 104 47 92 12 -4 14 -8
6 -8 -12 -1 -12 -4 -3 -13 7 -7 12 -21 12 -33 0 -16 2 -17 10 -5 8 13 10 12
10 -2 0 -10 7 -18 15 -18 14 0 19 11 16 38 -1 6 5 12 14 12 8 0 15 -3 16 -7 4
-43 23 -68 41 -57 4 3 7 -5 5 -18 -1 -13 -10 -26 -20 -30 -17 -7 -17 -10 -4
-35 30 -58 36 -90 21 -112 -9 -12 -11 -22 -4 -26 5 -3 10 -17 10 -30 0 -50 8
-55 51 -31 44 23 57 53 38 87 -6 13 -13 62 -14 109 -4 106 -3 102 -15 95 -6
-4 -10 11 -10 37 0 30 3 39 10 28 11 -17 14 -14 27 25 5 17 19 34 31 40 12 5
24 22 27 37 7 29 33 43 64 33 23 -7 35 9 50 67 14 59 14 58 -5 58 -8 0 -13 4
-9 9 3 6 -10 17 -30 27 -19 9 -32 20 -29 25 3 5 -2 9 -10 9 -8 0 -22 8 -32 18
-10 9 -21 17 -26 17 -5 0 -12 5 -16 11 -9 15 -49 22 -50 9 0 -5 7 -9 16 -8 18
3 -7 -10 -42 -21 -10 -4 -16 -12 -13 -20 4 -9 -3 -16 -18 -20 -15 -4 -22 -11
-19 -20 3 -8 1 -17 -5 -21 -6 -3 -11 -15 -11 -26 0 -10 -6 -19 -14 -19 -12 0
-27 -39 -30 -77 -2 -18 -16 -28 -17 -12 -1 8 -1 17 0 22 2 16 -18 6 -24 -13
-3 -11 -11 -20 -17 -20 -6 0 -26 -13 -45 -30 -18 -16 -42 -30 -51 -30 -10 0
-23 -5 -28 -10 -22 -22 -77 14 -81 51 -4 39 -28 76 -97 152 -14 15 -26 33 -26
40 -1 17 -25 47 -39 47 -16 0 -14 47 3 53 8 3 17 3 20 0 3 -3 54 -8 113 -10
98 -3 111 -1 158 22 59 28 132 36 145 14 16 -26 27 7 29 91 1 23 51 62 51 39
0 -5 -4 -9 -10 -9 -5 0 -7 -7 -3 -16 10 -26 25 10 28 65 2 25 6 75 9 111 4 36
9 87 11 114 l4 48 -30 -6 c-21 -4 -31 -1 -35 9 -4 8 -16 15 -29 15 -18 0 -24
7 -29 38 -8 48 -16 60 -46 65 -14 2 -32 7 -40 10 -8 3 -28 4 -45 3 -16 -2 -40
-4 -53 -4 -14 -1 -26 -11 -31 -26 -5 -13 -30 -36 -55 -52 -26 -16 -44 -35 -41
-41 2 -7 0 -13 -6 -13 -6 0 -8 -4 -5 -9 3 -5 -1 -15 -10 -22 -8 -7 -21 -28
-29 -46 -8 -19 -21 -41 -30 -49 -17 -17 -20 -34 -6 -34 5 0 11 10 14 21 4 16
11 20 26 16 13 -3 25 1 31 11 9 16 9 16 10 0 0 -21 4 -22 31 -8 10 6 19 17 19
25 0 8 7 15 15 15 8 0 15 -9 15 -19 0 -14 5 -18 21 -14 14 4 19 12 16 24 -4
14 0 19 14 19 11 0 19 -7 19 -16 0 -9 9 -23 20 -32 44 -36 -41 -135 -98 -115
-9 3 -14 3 -10 -2 4 -4 25 -11 45 -15 l38 -7 -45 -10 c-34 -7 -52 -6 -71 3
-15 7 -29 10 -33 7 -3 -4 -6 12 -6 35 0 33 -3 40 -15 36 -9 -4 -15 0 -15 10 0
9 -4 16 -10 16 -5 0 -10 -10 -10 -22 0 -12 -6 -40 -14 -63 -8 -22 -19 -59 -25
-82 -11 -40 -13 -42 -47 -41 -40 1 -54 22 -59 90 -3 37 11 53 38 43 6 -3 18 4
25 16 8 12 9 18 3 15 -18 -12 -24 17 -6 31 18 13 18 13 0 13 -17 0 -17 1 -2
18 10 10 14 22 10 25 -12 13 -23 7 -23 -12 0 -11 -4 -22 -10 -26 -5 -3 -7 -12
-4 -19 3 -7 -2 -16 -10 -19 -18 -7 -19 -3 -10 42 4 17 11 28 16 25 5 -3 7 20
4 58 -3 34 -2 88 3 118 5 30 9 43 10 28 1 -39 21 -35 21 3 0 24 4 30 15 25 10
-3 18 1 22 12 4 9 11 20 17 25 7 4 2 9 -12 13 -19 5 -20 9 -10 22 10 12 10 14
1 8 -7 -4 -13 -2 -13 3 0 6 11 11 24 11 56 0 47 36 -13 52 -9 3 -1 13 23 27
21 13 45 21 57 18 16 -4 18 -3 9 8 -8 10 -8 15 0 20 6 4 15 17 20 29 6 15 7 7
5 -26 -2 -26 0 -50 5 -53 11 -7 32 30 23 39 -3 3 4 6 16 6 14 0 25 7 28 20 3
11 10 21 17 21 6 1 16 2 21 4 6 1 15 3 21 3 7 1 15 13 18 27 4 14 11 25 17 25
5 0 29 9 51 20 23 11 48 20 55 20 7 0 13 5 13 10 0 6 7 10 15 10 8 0 19 8 24
19 14 25 56 32 75 12 15 -14 16 -13 16 7 0 15 6 22 20 22 11 0 27 11 36 25 9
14 23 25 30 25 8 0 19 12 24 26 9 23 14 25 66 22 31 -2 58 -6 61 -10z m-527
-152 c0 -16 -18 -31 -27 -22 -8 8 5 36 17 36 5 0 10 -6 10 -14z m-5 -56 c3 -5
1 -10 -4 -10 -6 0 -11 5 -11 10 0 6 2 10 4 10 3 0 8 -4 11 -10z m-28 -7 c-4
-3 -10 -3 -14 0 -3 4 0 7 7 7 7 0 10 -3 7 -7z m-32 -53 c3 -5 1 -10 -4 -10 -6
0 -11 5 -11 10 0 6 2 10 4 10 3 0 8 -4 11 -10z m-178 -237 c-4 -3 -7 0 -7 7 0
7 3 10 7 7 3 -4 3 -10 0 -14z m-47 -8 c0 -3 -2 -5 -5 -5 -3 0 -5 2 -5 5 0 3 2
5 5 5 3 0 5 -2 5 -5z m240 -135 c0 -5 -7 -10 -16 -10 -8 0 -12 5 -9 10 3 6 10
10 16 10 5 0 9 -4 9 -10z m80 -215 c0 -3 -2 -5 -5 -5 -3 0 -5 2 -5 5 0 3 2 5
5 5 3 0 5 -2 5 -5z m-153 -57 c-3 -8 -6 -5 -6 6 -1 11 2 17 5 13 3 -3 4 -12 1
-19z m-107 -263 c0 -3 -2 -5 -5 -5 -3 0 -5 2 -5 5 0 3 2 5 5 5 3 0 5 -2 5 -5z
m220 -285 c0 -5 9 -10 19 -10 39 0 37 -44 -2 -56 -25 -8 -33 -4 -29 14 2 6 -5
12 -15 12 -13 0 -15 3 -5 8 7 5 10 16 6 25 -4 12 -1 17 10 17 9 0 16 -4 16
-10z m265 -30 c3 -5 1 -10 -4 -10 -6 0 -11 5 -11 10 0 6 2 10 4 10 3 0 8 -4
11 -10z m-325 -55 c0 -3 -2 -5 -5 -5 -3 0 -5 2 -5 5 0 3 2 5 5 5 3 0 5 -2 5
-5z m340 0 c0 -3 -2 -5 -5 -5 -3 0 -5 2 -5 5 0 3 2 5 5 5 3 0 5 -2 5 -5z
m-210 -30 c0 -3 -2 -5 -5 -5 -3 0 -5 2 -5 5 0 3 2 5 5 5 3 0 5 -2 5 -5z m-40
-67 c0 -11 -7 -18 -19 -18 -14 0 -18 5 -14 18 2 10 11 19 19 19 8 0 14 -9 14
-19z m-35 -58 c3 -5 1 -10 -4 -10 -6 0 -11 5 -11 10 0 6 2 10 4 10 3 0 8 -4
11 -10z m42 -7 c-4 -3 -7 0 -7 7 0 7 3 10 7 7 3 -4 3 -10 0 -14z m20 -20 c-4
-3 -7 0 -7 7 0 7 3 10 7 7 3 -4 3 -10 0 -14z m173 -258 c0 -3 -2 -5 -5 -5 -3
0 -5 2 -5 5 0 3 2 5 5 5 3 0 5 -2 5 -5z m49 -94 c0 -11 -2 -12 -6 -3 -2 6 -8
10 -12 8 -4 -3 -8 7 -9 22 -1 26 -1 26 13 8 8 -11 15 -27 14 -35z m41 17 c0 6
7 12 15 12 8 0 15 -6 16 -12 0 -10 2 -10 6 0 8 19 29 14 29 -8 0 -11 -6 -20
-12 -20 -7 0 -14 -7 -18 -15 -14 -38 -73 -4 -61 36 6 17 9 19 16 8 6 -10 9
-11 9 -1z m535 -38 c9 -15 -24 -25 -38 -11 -9 9 -8 11 7 5 13 -5 17 -4 12 4
-4 7 -3 12 3 12 5 0 13 -5 16 -10z m-638 -37 c-4 -3 -10 -3 -14 0 -3 4 0 7 7
7 7 0 10 -3 7 -7z m40 -18 c0 -8 -4 -15 -9 -15 -10 0 -11 14 -1 23 9 10 10 9
10 -8z m-47 -5 c0 -5 -10 -10 -22 -10 -19 0 -20 2 -8 10 19 13 30 13 30 0z
m628 -23 c2 -11 -3 -17 -16 -17 -20 0 -36 23 -24 34 11 12 37 1 40 -17z m-598
-23 c0 -8 -4 -14 -10 -14 -5 0 -10 2 -10 4 0 2 -3 12 -6 20 -5 12 -2 15 10 10
9 -3 16 -12 16 -20z m610 -179 c0 -3 -2 -5 -5 -5 -3 0 -5 2 -5 5 0 3 2 5 5 5
3 0 5 -2 5 -5z m-776 -140 c4 -10 -1 -15 -14 -15 -20 0 -26 11 -13 23 10 11
20 8 27 -8z m1021 -245 c3 -5 1 -10 -4 -10 -6 0 -11 5 -11 10 0 6 2 10 4 10 3
0 8 -4 11 -10z m-1455 -225 c0 -19 -5 -25 -22 -24 -22 0 -22 1 -3 9 19 8 18 9
-4 9 -24 1 -24 1 -5 16 27 20 34 19 34 -10z m-487 -142 c-7 -2 -19 -2 -25 0
-7 3 -2 5 12 5 14 0 19 -2 13 -5z m-96 -40 c-4 -3 -10 -3 -14 0 -3 4 0 7 7 7
7 0 10 -3 7 -7z m-457 -78 c0 -3 -2 -5 -5 -5 -3 0 -5 2 -5 5 0 3 2 5 5 5 3 0
5 -2 5 -5z m-160 -71 c0 -11 -5 -14 -16 -10 -9 3 -18 6 -20 6 -3 0 -2 5 1 10
10 16 35 12 35 -6z m-404 -601 c-10 -10 -19 5 -10 18 6 11 8 11 12 0 2 -7 1
-15 -2 -18z m-116 -128 c0 -3 -2 -5 -5 -5 -3 0 -5 2 -5 5 0 3 2 5 5 5 3 0 5
-2 5 -5z m-430 -190 c0 -3 -2 -5 -5 -5 -3 0 -5 2 -5 5 0 3 2 5 5 5 3 0 5 -2 5
-5z m40 -50 c0 -3 -2 -5 -5 -5 -3 0 -5 2 -5 5 0 3 2 5 5 5 3 0 5 -2 5 -5z"/>
<path d="M3220 4565 c0 -3 2 -5 5 -5 3 0 5 2 5 5 0 3 -2 5 -5 5 -3 0 -5 -2 -5
-5z"/>
<path d="M2882 4483 c-6 -3 -9 -10 -6 -15 4 -6 7 -26 6 -44 -1 -32 9 -46 35
-50 7 -1 15 2 19 7 3 5 0 9 -5 9 -6 0 -10 8 -9 18 5 60 -8 86 -40 75z"/>
<path d="M3120 4320 c0 -7 3 -10 7 -7 3 4 3 10 0 14 -4 3 -7 0 -7 -7z"/>
<path d="M2460 4285 c0 -3 2 -5 5 -5 3 0 5 2 5 5 0 3 -2 5 -5 5 -3 0 -5 -2 -5
-5z"/>
<path d="M2493 4283 c4 -3 10 -3 14 0 3 4 0 7 -7 7 -7 0 -10 -3 -7 -7z"/>
<path d="M3375 4233 c-11 -3 -24 -9 -30 -13 -5 -4 -36 -13 -68 -20 -61 -12
-112 -52 -102 -79 10 -25 -6 -77 -31 -104 -26 -28 -30 -51 -14 -92 6 -15 12
-63 15 -108 6 -104 9 -112 48 -128 18 -7 42 -24 54 -38 12 -14 22 -22 23 -17
0 14 40 -25 40 -39 0 -18 49 -25 185 -25 185 1 178 -2 198 85 25 107 15 284
-19 338 -14 21 -22 42 -18 48 3 6 0 23 -6 40 -12 28 -26 39 -100 76 -32 15
-33 17 -12 21 28 4 28 8 -5 37 -28 24 -99 32 -158 18z m105 -358 c0 -3 -2 -5
-5 -5 -3 0 -5 2 -5 5 0 3 2 5 5 5 3 0 5 -2 5 -5z"/>
<path d="M2401 4214 c0 -11 3 -14 6 -6 3 7 2 16 -1 19 -3 4 -6 -2 -5 -13z"/>
<path d="M2915 4210 c-3 -5 -15 -10 -26 -10 -23 0 -24 -8 -3 -31 13 -14 13
-22 4 -39 -20 -37 16 -66 49 -41 23 18 24 20 8 36 -20 20 -31 59 -23 80 6 17
0 20 -9 5z"/>
<path d="M2360 4125 c0 -3 2 -5 5 -5 3 0 5 2 5 5 0 3 -2 5 -5 5 -3 0 -5 -2 -5
-5z"/>
<path d="M2330 4045 c0 -3 2 -5 5 -5 3 0 5 2 5 5 0 3 -2 5 -5 5 -3 0 -5 -2 -5
-5z"/>
<path d="M2340 3955 c0 -3 2 -5 5 -5 3 0 5 2 5 5 0 3 -2 5 -5 5 -3 0 -5 -2 -5
-5z"/>
<path d="M3090 3905 c0 -3 2 -5 5 -5 3 0 5 2 5 5 0 3 -2 5 -5 5 -3 0 -5 -2 -5
-5z"/>
<path d="M2370 3855 c0 -3 2 -5 5 -5 3 0 5 2 5 5 0 3 -2 5 -5 5 -3 0 -5 -2 -5
-5z"/>
<path d="M2846 3651 c-4 -7 -5 -15 -2 -18 9 -9 19 4 14 18 -4 11 -6 11 -12 0z"/>
<path d="M2903 3605 c0 -9 4 -14 9 -13 5 2 10 8 10 13 0 5 -5 11 -10 13 -5 1
-9 -4 -9 -13z"/>
<path d="M3615 3283 c-30 -33 -32 -86 -3 -91 21 -4 64 77 55 102 -9 23 -23 20
-52 -11z"/>
<path d="M3480 3105 c0 -3 2 -5 5 -5 3 0 5 2 5 5 0 3 -2 5 -5 5 -3 0 -5 -2 -5
-5z"/>
<path d="M3370 2955 c0 -3 2 -5 5 -5 3 0 5 2 5 5 0 3 -2 5 -5 5 -3 0 -5 -2 -5
-5z"/>
<path d="M2615 3167 c-14 -11 -15 -16 -5 -22 9 -5 11 -4 6 3 -4 7 -1 12 8 12
9 0 16 5 16 10 0 13 -3 13 -25 -3z"/>
<path d="M2590 3135 c0 -3 2 -5 5 -5 3 0 5 2 5 5 0 3 -2 5 -5 5 -3 0 -5 -2 -5
-5z"/>
<path d="M1020 1335 c0 -3 2 -5 5 -5 3 0 5 2 5 5 0 3 -2 5 -5 5 -3 0 -5 -2 -5
-5z"/>
<path d="M3872 4903 c2 -12 14 -18 36 -19 36 -2 38 1 18 22 -21 20 -58 18 -54
-3z"/>
<path d="M4291 4886 c-1 -24 -8 -44 -18 -52 -17 -13 -17 -13 0 -14 23 0 22
-16 -3 -23 -25 -6 -26 -27 -2 -28 9 -1 28 -3 41 -4 17 -2 28 6 40 26 11 19 24
29 40 29 24 0 24 0 5 19 -15 15 -21 16 -27 5 -18 -31 -37 -15 -39 34 l-1 47
-5 -45 -5 -45 -12 45 -13 45 -1 -39z m39 -76 c0 -5 -2 -10 -4 -10 -3 0 -8 5
-11 10 -3 6 -1 10 4 10 6 0 11 -4 11 -10z"/>
<path d="M4880 4915 c0 -3 2 -5 5 -5 3 0 5 2 5 5 0 3 -2 5 -5 5 -3 0 -5 -2 -5
-5z"/>
<path d="M3950 4879 c-11 -19 -10 -20 9 -9 12 6 21 15 21 20 0 18 -19 11 -30
-11z"/>
<path d="M830 4885 c0 -3 2 -5 5 -5 3 0 5 2 5 5 0 3 -2 5 -5 5 -3 0 -5 -2 -5
-5z"/>
<path d="M4390 4865 c0 -3 2 -5 5 -5 3 0 5 2 5 5 0 3 -2 5 -5 5 -3 0 -5 -2 -5
-5z"/>
<path d="M2018 4853 c12 -2 32 -2 45 0 12 2 2 4 -23 4 -25 0 -35 -2 -22 -4z"/>
<path d="M1020 4827 c0 -19 10 -27 26 -20 21 8 17 33 -6 33 -11 0 -20 -6 -20
-13z"/>
<path d="M3875 4830 c-3 -4 2 -11 11 -14 22 -8 34 -7 34 3 0 12 -39 21 -45 11z"/>
<path d="M800 4820 c0 -7 3 -10 7 -7 3 4 3 10 0 14 -4 3 -7 0 -7 -7z"/>
<path d="M1600 4825 c0 -3 2 -5 5 -5 3 0 5 2 5 5 0 3 -2 5 -5 5 -3 0 -5 -2 -5
-5z"/>
<path d="M1230 4770 c0 -5 5 -10 11 -10 5 0 7 5 4 10 -3 6 -8 10 -11 10 -2 0
-4 -4 -4 -10z"/>
<path d="M801 4754 c0 -11 3 -14 6 -6 3 7 2 16 -1 19 -3 4 -6 -2 -5 -13z"/>
<path d="M1020 4760 c0 -5 9 -10 20 -10 11 0 20 5 20 10 0 6 -9 10 -20 10 -11
0 -20 -4 -20 -10z"/>
<path d="M1600 4765 c0 -3 2 -5 5 -5 3 0 5 2 5 5 0 3 -2 5 -5 5 -3 0 -5 -2 -5
-5z"/>
<path d="M1750 4739 c0 -11 -4 -29 -10 -39 -7 -14 -6 -19 8 -22 14 -4 17 3 18
39 0 23 -3 43 -8 43 -4 0 -8 -9 -8 -21z"/>
<path d="M4203 4713 c4 -3 10 -3 14 0 3 4 0 7 -7 7 -7 0 -10 -3 -7 -7z"/>
<path d="M860 4695 c0 -9 9 -15 21 -15 19 0 20 -4 14 -39 -8 -49 24 -76 54
-46 15 15 15 16 -1 9 -15 -5 -18 0 -18 34 0 34 -4 41 -25 46 -14 4 -25 11 -25
16 0 6 -4 10 -10 10 -5 0 -10 -7 -10 -15z"/>
<path d="M4063 4677 c-17 -17 -19 -26 -12 -39 13 -24 29 -23 29 2 0 31 20 24
27 -10 7 -35 14 -37 38 -10 16 18 16 20 1 26 -9 3 -16 17 -16 30 0 31 -36 32
-67 1z"/>
<path d="M4627 4692 c-5 -7 -12 -10 -17 -7 -9 5 -33 -21 -36 -39 -1 -9 14 -11
55 -8 68 5 68 5 46 39 -17 25 -19 26 -25 8 -7 -20 -7 -20 -11 0 -3 14 -7 16
-12 7z"/>
<path d="M1043 4683 c4 -3 10 -3 14 0 3 4 0 7 -7 7 -7 0 -10 -3 -7 -7z"/>
<path d="M1253 4683 c4 -3 10 -3 14 0 3 4 0 7 -7 7 -7 0 -10 -3 -7 -7z"/>
<path d="M1280 4685 c0 -3 2 -5 5 -5 3 0 5 2 5 5 0 3 -2 5 -5 5 -3 0 -5 -2 -5
-5z"/>
<path d="M1430 4685 c0 -3 2 -5 5 -5 3 0 5 2 5 5 0 3 -2 5 -5 5 -3 0 -5 -2 -5
-5z"/>
<path d="M4160 4685 c0 -3 2 -5 5 -5 3 0 5 2 5 5 0 3 -2 5 -5 5 -3 0 -5 -2 -5
-5z"/>
<path d="M4560 4685 c0 -3 2 -5 5 -5 3 0 5 2 5 5 0 3 -2 5 -5 5 -3 0 -5 -2 -5
-5z"/>
<path d="M1674 4655 c-3 -13 -4 -30 -1 -37 4 -8 6 -7 6 4 1 11 6 15 16 12 11
-5 15 1 15 20 0 34 -27 35 -36 1z"/>
<path d="M1010 4645 c0 -3 2 -5 5 -5 3 0 5 2 5 5 0 3 -2 5 -5 5 -3 0 -5 -2 -5
-5z"/>
<path d="M1760 4635 c0 -8 4 -15 10 -15 5 0 7 7 4 15 -4 8 -8 15 -10 15 -2 0
-4 -7 -4 -15z"/>
<path d="M4490 4619 c0 -26 2 -29 20 -19 38 20 43 47 10 48 -27 1 -30 -3 -30
-29z"/>
<path d="M1740 4623 c0 -12 7 -23 15 -27 13 -5 14 -2 4 17 -17 32 -19 33 -19
10z"/>
<path d="M4185 4599 c6 -24 4 -30 -6 -27 -38 13 -47 -42 -14 -78 47 -51 87
-21 75 56 l-7 45 -2 -37 c-1 -52 -21 -48 -22 5 -1 23 -1 48 0 55 1 6 -5 12
-14 12 -13 0 -15 -6 -10 -31z m35 -109 c0 -5 -8 -10 -17 -10 -15 0 -16 2 -3
10 19 12 20 12 20 0z"/>
<path d="M295 4590 c-4 -6 -10 -8 -15 -5 -15 9 -40 -7 -40 -26 0 -12 5 -16 16
-12 12 4 14 0 10 -18 -15 -78 -26 -154 -31 -224 -3 -44 -7 -90 -10 -103 -2
-13 -5 -60 -6 -105 0 -45 -6 -109 -11 -142 -12 -70 -27 -242 -32 -370 -7 -186
-17 -328 -27 -398 -6 -40 -13 -130 -15 -202 -6 -194 -5 -189 -33 -193 -16 -3
-30 3 -40 16 -9 11 -26 23 -39 27 -22 6 -22 5 -22 -84 0 -90 0 -91 25 -91 14
0 25 -4 25 -10 0 -16 20 -12 47 9 36 29 48 19 46 -42 0 -28 -2 -52 -3 -52 -1
0 -3 -22 -5 -48 -1 -26 -9 -55 -18 -65 -22 -25 -46 -239 -53 -477 -8 -268 -8
-276 6 -285 7 -4 10 -17 7 -29 -3 -14 0 -21 9 -21 8 0 17 -7 21 -16 3 -8 11
-13 17 -11 7 3 20 -1 30 -9 17 -12 18 -23 12 -134 -4 -66 -4 -126 1 -132 4 -7
8 -17 9 -23 1 -5 9 -27 18 -48 9 -20 14 -38 11 -38 -3 -1 -9 -3 -15 -4 -5 -1
-17 -3 -25 -4 -27 -2 -20 -61 8 -61 20 1 20 2 5 11 -22 12 -23 29 -3 29 8 0
15 -3 15 -7 0 -22 54 -33 79 -16 28 19 61 25 61 12 0 -5 7 -9 15 -9 8 0 15 -4
15 -10 0 -5 6 -10 14 -10 42 0 26 -31 -31 -65 -18 -11 -33 -23 -33 -28 0 -5
-12 -7 -27 -4 -41 8 -53 -1 -46 -34 3 -18 1 -29 -6 -29 -6 0 -11 -6 -11 -13 0
-17 -68 -47 -109 -47 -28 0 -31 -3 -26 -22 5 -20 2 -23 -23 -24 -62 -2 -62 -2
-62 -139 0 -124 0 -125 23 -125 25 0 64 38 87 83 14 27 35 47 147 139 115 94
183 167 183 197 0 40 -11 91 -19 87 -3 -2 -5 57 -4 132 1 143 -2 164 -36 199
-17 18 -22 39 -25 102 -3 44 -9 88 -14 98 -5 10 -12 35 -15 55 -4 24 -17 47
-39 67 -65 60 -68 64 -68 102 0 50 14 84 46 114 24 22 25 25 8 25 -16 0 -17 2
-4 10 22 14 43 12 37 -4 -3 -7 3 -20 13 -28 9 -9 20 -36 24 -62 4 -25 11 -48
17 -51 5 -4 9 -21 9 -39 0 -33 33 -76 48 -62 9 10 8 202 -2 341 -5 61 -10 155
-11 210 -3 153 -14 501 -22 685 -3 91 -5 224 -4 296 2 107 -1 133 -13 143 -9
7 -13 17 -10 22 3 5 -2 9 -11 9 -9 0 -13 -4 -10 -10 8 -13 -5 -12 -31 3 -19
11 -21 20 -19 82 3 108 25 297 40 330 6 17 13 51 14 75 1 25 3 61 6 80 11 80
13 265 4 276 -7 8 -6 14 1 19 7 4 7 12 -1 26 -6 12 -8 37 -4 60 4 25 3 39 -4
39 -7 0 -11 23 -11 60 0 58 -16 81 -35 50z m-28 -1747 c-4 -3 -7 0 -7 7 0 7 3
10 7 7 3 -4 3 -10 0 -14z m13 -18 c0 -3 -2 -5 -5 -5 -3 0 -5 2 -5 5 0 3 2 5 5
5 3 0 5 -2 5 -5z m-1 -95 c0 -25 3 -70 6 -100 15 -158 14 -266 0 -317 -14 -49
-14 -53 6 -87 21 -36 20 -85 -3 -133 -13 -26 -38 -31 -38 -7 0 11 -6 15 -17
12 -16 -4 -18 5 -21 86 -5 177 -5 212 3 294 6 67 5 86 -6 92 -25 16 10 220 37
220 8 0 14 6 15 13 1 29 17 -32 18 -73z m-149 35 c0 -3 -2 -5 -5 -5 -3 0 -5 2
-5 5 0 3 2 5 5 5 3 0 5 -2 5 -5z m0 -30 c0 -3 -2 -5 -5 -5 -3 0 -5 2 -5 5 0 3
2 5 5 5 3 0 5 -2 5 -5z m2 -937 c-7 -7 -12 -8 -12 -2 0 14 12 26 19 19 2 -3
-1 -11 -7 -17z m-35 -140 c-3 -8 -6 -5 -6 6 -1 11 2 17 5 13 3 -3 4 -12 1 -19z
m130 -455 c-4 -3 -7 0 -7 7 0 7 3 10 7 7 3 -4 3 -10 0 -14z m23 2 c0 -3 -2 -5
-5 -5 -3 0 -5 2 -5 5 0 3 2 5 5 5 3 0 5 -2 5 -5z"/>
<path d="M1583 4593 c4 -3 10 -3 14 0 3 4 0 7 -7 7 -7 0 -10 -3 -7 -7z"/>
<path d="M1520 4534 c0 -8 5 -12 10 -9 6 3 10 10 10 16 0 5 -4 9 -10 9 -5 0
-10 -7 -10 -16z"/>
<path d="M4810 4535 c0 -8 4 -15 10 -15 5 0 7 7 4 15 -4 8 -8 15 -10 15 -2 0
-4 -7 -4 -15z"/>
<path d="M1123 4515 c-22 -9 -35 -10 -39 -4 -10 16 -26 -5 -18 -24 12 -31 94
-8 91 25 -1 10 -1 18 -2 18 0 -1 -15 -7 -32 -15z"/>
<path d="M1190 4520 c8 -5 24 -10 34 -10 26 0 18 6 -19 14 -22 5 -26 4 -15 -4z"/>
<path d="M1910 4525 c0 -3 2 -5 5 -5 3 0 5 2 5 5 0 3 -2 5 -5 5 -3 0 -5 -2 -5
-5z"/>
<path d="M1565 4510 c3 -5 13 -10 21 -10 8 0 14 5 14 10 0 6 -9 10 -21 10 -11
0 -17 -4 -14 -10z"/>
<path d="M1621 4499 l-23 -19 31 0 c31 0 37 6 23 27 -5 8 -14 6 -31 -8z"/>
<path d="M4370 4491 c0 -16 -4 -32 -9 -35 -4 -3 -4 -29 1 -58 10 -63 2 -126
-19 -150 -9 -10 -13 -26 -10 -37 3 -11 0 -22 -7 -25 -8 -3 -7 -7 3 -14 9 -7
10 -12 2 -16 -23 -14 -13 -48 10 -36 12 7 18 18 15 26 -7 17 15 19 32 2 10
-10 17 -10 32 0 12 7 20 8 20 2 0 -5 5 -10 10 -10 14 0 13 32 -2 67 -6 15 -13
57 -15 93 -2 36 -5 80 -6 99 -1 20 3 36 11 38 8 3 12 -9 13 -39 l1 -43 9 33
c9 30 12 32 54 32 25 0 45 5 45 10 0 6 -7 10 -15 10 -18 0 -63 27 -85 52 -8 9
-32 19 -52 22 -37 7 -38 6 -38 -23z m58 -33 c-6 -18 -28 -21 -28 -4 0 9 7 16
16 16 9 0 14 -5 12 -12z m-21 -60 c-3 -8 -6 -5 -6 6 -1 11 2 17 5 13 3 -3 4
-12 1 -19z m-10 -95 c-4 -3 -7 0 -7 7 0 7 3 10 7 7 3 -4 3 -10 0 -14z m17 -27
c-3 -21 -8 -35 -11 -32 -2 2 -1 20 3 40 3 21 8 35 11 32 2 -2 1 -20 -3 -40z
m23 -82 c-3 -3 -12 -4 -19 -1 -8 3 -5 6 6 6 11 1 17 -2 13 -5z"/>
<path d="M480 4485 c0 -3 2 -5 5 -5 3 0 5 2 5 5 0 3 -2 5 -5 5 -3 0 -5 -2 -5
-5z"/>
<path d="M1430 4485 c0 -3 2 -5 5 -5 3 0 5 2 5 5 0 3 -2 5 -5 5 -3 0 -5 -2 -5
-5z"/>
<path d="M1640 4445 c0 -3 2 -5 5 -5 3 0 5 2 5 5 0 3 -2 5 -5 5 -3 0 -5 -2 -5
-5z"/>
<path d="M4573 4443 c4 -3 10 -3 14 0 3 4 0 7 -7 7 -7 0 -10 -3 -7 -7z"/>
<path d="M1008 4433 c7 -3 16 -2 19 1 4 3 -2 6 -13 5 -11 0 -14 -3 -6 -6z"/>
<path d="M980 4395 c0 -3 2 -5 5 -5 3 0 5 2 5 5 0 3 -2 5 -5 5 -3 0 -5 -2 -5
-5z"/>
<path d="M1615 4390 c-4 -6 5 -10 20 -10 15 0 24 4 20 10 -3 6 -12 10 -20 10
-8 0 -17 -4 -20 -10z"/>
<path d="M1307 4376 c-10 -8 -14 -17 -8 -20 8 -5 41 18 41 30 0 8 -15 3 -33
-10z"/>
<path d="M1360 4371 c0 -12 6 -21 16 -21 9 0 14 7 12 17 -5 25 -28 28 -28 4z"/>
<path d="M1585 4380 c-3 -5 -1 -10 4 -10 6 0 11 5 11 10 0 6 -2 10 -4 10 -3 0
-8 -4 -11 -10z"/>
<path d="M1853 4373 c9 -2 25 -2 35 0 9 3 1 5 -18 5 -19 0 -27 -2 -17 -5z"/>
<path d="M1488 4353 c7 -3 16 -2 19 1 4 3 -2 6 -13 5 -11 0 -14 -3 -6 -6z"/>
<path d="M1830 4355 c0 -3 2 -5 5 -5 3 0 5 2 5 5 0 3 -2 5 -5 5 -3 0 -5 -2 -5
-5z"/>
<path d="M4630 4355 c0 -3 2 -5 5 -5 3 0 5 2 5 5 0 3 -2 5 -5 5 -3 0 -5 -2 -5
-5z"/>
<path d="M1740 4315 c0 -3 2 -5 5 -5 3 0 5 2 5 5 0 3 -2 5 -5 5 -3 0 -5 -2 -5
-5z"/>
<path d="M1460 4280 c0 -13 5 -20 13 -17 6 2 12 10 12 17 0 7 -6 15 -12 18 -8
2 -13 -5 -13 -18z"/>
<path d="M970 4285 c0 -3 2 -5 5 -5 3 0 5 2 5 5 0 3 -2 5 -5 5 -3 0 -5 -2 -5
-5z"/>
<path d="M1006 4271 c-3 -5 3 -11 14 -14 13 -3 20 0 20 9 0 15 -26 19 -34 5z"/>
<path d="M1300 4265 c0 -8 2 -15 4 -15 2 0 6 7 10 15 3 8 1 15 -4 15 -6 0 -10
-7 -10 -15z"/>
<path d="M1510 4272 c0 -5 7 -9 15 -9 8 0 12 4 9 9 -3 4 -9 8 -15 8 -5 0 -9
-4 -9 -8z"/>
<path d="M960 4260 c0 -5 7 -10 16 -10 8 0 12 5 9 10 -3 6 -10 10 -16 10 -5 0
-9 -4 -9 -10z"/>
<path d="M4311 4234 c0 -11 3 -14 6 -6 3 7 2 16 -1 19 -3 4 -6 -2 -5 -13z"/>
<path d="M1090 4230 c0 -7 3 -10 7 -7 3 4 3 10 0 14 -4 3 -7 0 -7 -7z"/>
<path d="M1090 4205 c0 -3 2 -5 5 -5 3 0 5 2 5 5 0 3 -2 5 -5 5 -3 0 -5 -2 -5
-5z"/>
<path d="M4860 4205 c0 -3 2 -5 5 -5 3 0 5 2 5 5 0 3 -2 5 -5 5 -3 0 -5 -2 -5
-5z"/>
<path d="M1668 4180 c-17 -19 -2 -49 17 -32 4 4 6 -2 3 -13 -4 -15 0 -21 12
-21 15 0 16 5 9 24 -5 14 -7 33 -4 43 8 25 -14 24 -37 -1z"/>
<path d="M960 4130 c0 -5 5 -10 11 -10 5 0 7 5 4 10 -3 6 -8 10 -11 10 -2 0
-4 -4 -4 -10z"/>
<path d="M4786 4133 c-4 -4 -21 -7 -38 -8 -22 0 -32 -5 -34 -18 -1 -10 -10
-27 -18 -36 -21 -24 -20 -38 4 -44 11 -3 20 -1 20 4 0 5 7 9 15 9 12 0 13 4 6
18 -14 26 2 48 19 27 22 -27 40 -18 40 20 0 36 -2 40 -14 28z"/>
<path d="M4810 4135 c0 -3 2 -5 5 -5 3 0 5 2 5 5 0 3 -2 5 -5 5 -3 0 -5 -2 -5
-5z"/>
<path d="M1660 4060 c0 -7 3 -10 7 -7 3 4 3 10 0 14 -4 3 -7 0 -7 -7z"/>
<path d="M4534 4055 c-4 -8 -17 -15 -31 -15 -26 0 -32 -49 -7 -57 20 -7 76 51
68 70 -8 21 -23 22 -30 2z"/>
<path d="M1799 4028 c4 -13 4 -37 -1 -55 -14 -53 3 -67 41 -34 l22 20 -21 11
c-14 7 -20 19 -18 33 3 24 -8 47 -22 47 -5 0 -6 -10 -1 -22z m8 -85 c-4 -3 -7
0 -7 7 0 7 3 10 7 7 3 -4 3 -10 0 -14z m23 12 c0 -3 -2 -5 -5 -5 -3 0 -5 2 -5
5 0 3 2 5 5 5 3 0 5 -2 5 -5z"/>
<path d="M890 4035 c0 -3 2 -5 5 -5 3 0 5 2 5 5 0 3 -2 5 -5 5 -3 0 -5 -2 -5
-5z"/>
<path d="M1585 4021 c-3 -5 -1 -12 5 -16 5 -3 10 1 10 9 0 18 -6 21 -15 7z"/>
<path d="M895 4011 c-3 -6 -1 -11 4 -11 6 0 11 -6 11 -14 0 -18 20 -25 45 -16
18 7 19 8 3 15 -10 4 -15 11 -12 16 3 5 1 9 -5 9 -5 0 -16 3 -24 6 -8 3 -18 1
-22 -5z"/>
<path d="M4537 3989 c-23 -13 -22 -25 3 -32 23 -6 34 7 23 27 -6 11 -13 12
-26 5z m23 -24 c0 -3 -2 -5 -5 -5 -3 0 -5 2 -5 5 0 3 2 5 5 5 3 0 5 -2 5 -5z"/>
<path d="M1490 3965 c0 -3 2 -5 5 -5 3 0 5 2 5 5 0 3 -2 5 -5 5 -3 0 -5 -2 -5
-5z"/>
<path d="M4940 3961 c0 -5 7 -11 15 -15 9 -3 15 0 15 9 0 8 -7 15 -15 15 -8 0
-15 -4 -15 -9z"/>
<path d="M1470 3950 c0 -7 3 -10 7 -7 3 4 3 10 0 14 -4 3 -7 0 -7 -7z"/>
<path d="M1477 3883 c-4 -3 -7 -11 -7 -17 0 -6 5 -5 12 2 6 6 9 14 7 17 -3 3
-9 2 -12 -2z"/>
<path d="M1550 3885 c0 -3 2 -5 5 -5 3 0 5 2 5 5 0 3 -2 5 -5 5 -3 0 -5 -2 -5
-5z"/>
<path d="M1012 3848 c-20 -20 -15 -51 8 -45 11 3 18 1 14 -4 -3 -5 0 -9 6 -9
8 0 9 11 5 31 -6 24 -4 30 5 24 9 -5 11 -4 6 3 -9 15 -29 15 -44 0z"/>
<path d="M1080 3836 c0 -2 7 -6 15 -10 8 -3 15 -1 15 4 0 6 -7 10 -15 10 -8 0
-15 -2 -15 -4z"/>
<path d="M1083 3760 c-2 -45 6 -50 26 -19 11 19 10 24 -6 40 -18 19 -19 18
-20 -21z"/>
<path d="M1160 3770 c0 -7 3 -10 7 -7 3 4 3 10 0 14 -4 3 -7 0 -7 -7z"/>
<path d="M1385 3770 c-8 -13 4 -32 16 -25 12 8 12 35 0 35 -6 0 -13 -4 -16
-10z"/>
<path d="M880 3760 c0 -7 3 -10 7 -7 3 4 3 10 0 14 -4 3 -7 0 -7 -7z"/>
<path d="M1190 3748 c0 -2 9 -11 20 -21 11 -9 20 -13 20 -7 0 5 -9 14 -20 20
-11 6 -20 9 -20 8z"/>
<path d="M1683 3738 c-10 -12 -12 -103 -2 -112 23 -22 83 -1 75 27 -3 12 -6
36 -6 53 0 18 -5 31 -12 31 -7 0 -20 4 -29 7 -9 4 -20 1 -26 -6z m47 -83 c0
-8 -4 -15 -10 -15 -5 0 -10 7 -10 15 0 8 5 15 10 15 6 0 10 -7 10 -15z m-40 0
c0 -3 -2 -5 -5 -5 -3 0 -5 2 -5 5 0 3 2 5 5 5 3 0 5 -2 5 -5z"/>
<path d="M1005 3728 c-6 -17 0 -54 8 -50 4 1 6 3 5 5 -2 2 5 15 15 30 17 26
17 27 -3 27 -11 0 -23 -6 -25 -12z"/>
<path d="M1160 3725 c0 -3 2 -5 5 -5 3 0 5 2 5 5 0 3 -2 5 -5 5 -3 0 -5 -2 -5
-5z"/>
<path d="M1760 3725 c0 -3 2 -5 5 -5 3 0 5 2 5 5 0 3 -2 5 -5 5 -3 0 -5 -2 -5
-5z"/>
<path d="M1040 3706 c0 -8 5 -18 10 -21 6 -3 10 3 10 14 0 12 -4 21 -10 21 -5
0 -10 -6 -10 -14z"/>
<path d="M4340 3715 c0 -3 2 -5 5 -5 3 0 5 2 5 5 0 3 -2 5 -5 5 -3 0 -5 -2 -5
-5z"/>
<path d="M1161 3694 c0 -11 3 -14 6 -6 3 7 2 16 -1 19 -3 4 -6 -2 -5 -13z"/>
<path d="M1190 3695 c0 -3 2 -5 5 -5 3 0 5 2 5 5 0 3 -2 5 -5 5 -3 0 -5 -2 -5
-5z"/>
<path d="M1101 3673 c-1 -12 -4 -30 -8 -40 -7 -17 -6 -17 11 0 15 14 16 23 8
40 l-11 22 0 -22z"/>
<path d="M4260 3680 c0 -7 3 -10 7 -7 3 4 3 10 0 14 -4 3 -7 0 -7 -7z"/>
<path d="M1640 3665 c0 -3 2 -5 5 -5 3 0 5 2 5 5 0 3 -2 5 -5 5 -3 0 -5 -2 -5
-5z"/>
<path d="M4968 3653 c6 -2 18 -2 25 0 6 3 1 5 -13 5 -14 0 -19 -2 -12 -5z"/>
<path d="M4300 3643 c5 -2 8 -9 4 -14 -3 -5 -14 -5 -26 2 -13 7 -18 7 -14 1 4
-6 1 -14 -6 -19 -7 -4 -19 -16 -26 -25 -12 -15 -11 -16 12 -12 14 2 26 0 26
-6 0 -5 -7 -10 -15 -10 -8 0 -15 -7 -15 -15 0 -19 29 -19 53 -1 22 17 29 97 9
102 -7 1 -8 0 -2 -3z"/>
<path d="M4930 3645 c0 -3 2 -5 5 -5 3 0 5 2 5 5 0 3 -2 5 -5 5 -3 0 -5 -2 -5
-5z"/>
<path d="M4350 3610 c0 -7 3 -10 7 -7 3 4 3 10 0 14 -4 3 -7 0 -7 -7z"/>
<path d="M4760 3610 c0 -5 7 -7 15 -4 8 4 15 8 15 10 0 2 -7 4 -15 4 -8 0 -15
-4 -15 -10z"/>
<path d="M1100 3577 c-26 -21 -38 -59 -28 -89 15 -42 44 -37 53 9 4 20 14 43
23 50 16 11 16 12 0 13 -10 0 -18 7 -18 15 0 18 -10 19 -30 2z"/>
<path d="M1670 3585 c0 -3 2 -5 5 -5 3 0 5 2 5 5 0 3 -2 5 -5 5 -3 0 -5 -2 -5
-5z"/>
<path d="M340 3555 c0 -3 2 -5 5 -5 3 0 5 2 5 5 0 3 -2 5 -5 5 -3 0 -5 -2 -5
-5z"/>
<path d="M4770 3541 c0 -6 5 -13 10 -16 6 -3 10 1 10 9 0 9 -4 16 -10 16 -5 0
-10 -4 -10 -9z"/>
<path d="M4200 3535 c0 -3 2 -5 5 -5 3 0 5 2 5 5 0 3 -2 5 -5 5 -3 0 -5 -2 -5
-5z"/>
<path d="M4320 3505 c0 -3 2 -5 5 -5 3 0 5 2 5 5 0 3 -2 5 -5 5 -3 0 -5 -2 -5
-5z"/>
<path d="M1883 3483 c4 -3 10 -3 14 0 3 4 0 7 -7 7 -7 0 -10 -3 -7 -7z"/>
<path d="M4800 3485 c0 -3 2 -5 5 -5 3 0 5 2 5 5 0 3 -2 5 -5 5 -3 0 -5 -2 -5
-5z"/>
<path d="M4700 3475 c0 -3 2 -5 5 -5 3 0 5 2 5 5 0 3 -2 5 -5 5 -3 0 -5 -2 -5
-5z"/>
<path d="M4750 3475 c0 -3 2 -5 5 -5 3 0 5 2 5 5 0 3 -2 5 -5 5 -3 0 -5 -2 -5
-5z"/>
<path d="M4830 3445 c7 -9 15 -13 17 -11 7 7 -7 26 -19 26 -6 0 -6 -6 2 -15z"/>
<path d="M1670 3440 c0 -7 3 -10 7 -7 3 4 3 10 0 14 -4 3 -7 0 -7 -7z"/>
<path d="M968 3433 c7 -3 16 -2 19 1 4 3 -2 6 -13 5 -11 0 -14 -3 -6 -6z"/>
<path d="M1166 3410 c6 -43 21 -85 30 -83 5 1 7 -19 5 -43 -4 -55 13 -58 27
-4 5 22 6 40 2 40 -4 0 -5 10 -3 23 9 45 -10 90 -38 91 -22 1 -25 -2 -23 -24z"/>
<path d="M4880 3430 c0 -5 5 -10 10 -10 6 0 10 5 10 10 0 6 -4 10 -10 10 -5 0
-10 -4 -10 -10z"/>
<path d="M1585 3420 c3 -5 8 -10 11 -10 2 0 4 5 4 10 0 6 -5 10 -11 10 -5 0
-7 -4 -4 -10z"/>
<path d="M4910 3425 c0 -3 2 -5 5 -5 3 0 5 2 5 5 0 3 -2 5 -5 5 -3 0 -5 -2 -5
-5z"/>
<path d="M4783 3408 c-38 -18 -39 -82 -1 -91 11 -3 17 -3 14 0 -3 4 -1 12 5
19 12 14 19 73 10 78 -3 2 -16 -1 -28 -6z"/>
<path d="M4850 3405 c0 -3 2 -5 5 -5 3 0 5 2 5 5 0 3 -2 5 -5 5 -3 0 -5 -2 -5
-5z"/>
<path d="M4883 3393 c4 -3 10 -3 14 0 3 4 0 7 -7 7 -7 0 -10 -3 -7 -7z"/>
<path d="M1910 3380 c0 -7 3 -10 7 -7 3 4 3 10 0 14 -4 3 -7 0 -7 -7z"/>
<path d="M1308 3323 c7 -3 16 -2 19 1 4 3 -2 6 -13 5 -11 0 -14 -3 -6 -6z"/>
<path d="M4960 3325 c0 -3 2 -5 5 -5 3 0 5 2 5 5 0 3 -2 5 -5 5 -3 0 -5 -2 -5
-5z"/>
<path d="M4240 3300 c0 -5 18 -10 40 -10 22 0 40 5 40 10 0 6 -18 10 -40 10
-22 0 -40 -4 -40 -10z"/>
<path d="M4825 3280 c3 -5 8 -10 11 -10 2 0 4 5 4 10 0 6 -5 10 -11 10 -5 0
-7 -4 -4 -10z"/>
<path d="M4965 3280 c3 -5 13 -10 21 -10 8 0 14 5 14 10 0 6 -9 10 -21 10 -11
0 -17 -4 -14 -10z"/>
<path d="M1590 3265 c0 -3 2 -5 5 -5 3 0 5 2 5 5 0 3 -2 5 -5 5 -3 0 -5 -2 -5
-5z"/>
<path d="M4885 3260 c3 -5 19 -10 35 -10 16 0 32 5 35 10 4 6 -10 10 -35 10
-25 0 -39 -4 -35 -10z"/>
<path d="M1600 3245 c0 -3 2 -5 5 -5 3 0 5 2 5 5 0 3 -2 5 -5 5 -3 0 -5 -2 -5
-5z"/>
<path d="M1540 3230 c0 -7 3 -10 7 -7 3 4 3 10 0 14 -4 3 -7 0 -7 -7z"/>
<path d="M4150 3230 c0 -7 3 -10 7 -7 3 4 3 10 0 14 -4 3 -7 0 -7 -7z"/>
<path d="M4615 3230 c-3 -5 1 -10 9 -10 8 0 18 5 21 10 3 6 -1 10 -9 10 -8 0
-18 -4 -21 -10z"/>
<path d="M4840 3230 c0 -5 4 -10 9 -10 6 0 13 5 16 10 3 6 -1 10 -9 10 -9 0
-16 -4 -16 -10z"/>
<path d="M4978 3233 c7 -3 16 -2 19 1 4 3 -2 6 -13 5 -11 0 -14 -3 -6 -6z"/>
<path d="M1393 3213 c-39 -20 -42 -33 -8 -33 14 0 25 4 25 10 0 5 7 7 15 4 10
-4 15 0 15 15 0 25 -4 25 -47 4z"/>
<path d="M1140 3210 c0 -5 14 -10 30 -10 17 0 30 5 30 10 0 6 -13 10 -30 10
-16 0 -30 -4 -30 -10z"/>
<path d="M1210 3215 c0 -3 2 -5 5 -5 3 0 5 2 5 5 0 3 -2 5 -5 5 -3 0 -5 -2 -5
-5z"/>
<path d="M1280 3215 c0 -3 2 -5 5 -5 3 0 5 2 5 5 0 3 -2 5 -5 5 -3 0 -5 -2 -5
-5z"/>
<path d="M4982 3211 c-11 -7 -11 -9 2 -14 10 -4 16 -1 16 8 0 17 -1 17 -18 6z"/>
<path d="M4158 3203 c7 -3 16 -2 19 1 4 3 -2 6 -13 5 -11 0 -14 -3 -6 -6z"/>
<path d="M1264 3180 c-53 -21 -37 -41 36 -46 45 -3 48 -2 42 19 -9 36 -34 45
-78 27z"/>
<path d="M1530 3171 c0 -30 17 -34 22 -6 4 17 1 25 -8 25 -8 0 -14 -9 -14 -19z"/>
<path d="M4820 3176 c0 -9 5 -16 10 -16 6 0 10 4 10 9 0 6 -4 13 -10 16 -5 3
-10 -1 -10 -9z"/>
<path d="M1418 3166 c-42 -15 -47 -40 -7 -32 21 4 40 1 54 -8 30 -20 67 2 47
26 -6 8 -9 18 -5 21 3 4 1 7 -5 7 -7 0 -12 -4 -12 -10 0 -6 -9 -6 -22 -1 -13
4 -35 3 -50 -3z m32 -1 c0 -3 -2 -5 -5 -5 -3 0 -5 2 -5 5 0 3 2 5 5 5 3 0 5
-2 5 -5z"/>
<path d="M4143 3162 c-27 -4 -31 -22 -5 -23 166 -9 168 -9 141 5 -28 14 -100
24 -136 18z m34 -9 c-4 -3 -10 -3 -14 0 -3 4 0 7 7 7 7 0 10 -3 7 -7z"/>
<path d="M960 3155 c0 -3 2 -5 5 -5 3 0 5 2 5 5 0 3 -2 5 -5 5 -3 0 -5 -2 -5
-5z"/>
<path d="M1000 3150 c0 -5 7 -10 15 -10 8 0 15 5 15 10 0 6 -7 10 -15 10 -8 0
-15 -4 -15 -10z"/>
<path d="M4560 3151 c0 -5 9 -7 20 -4 11 3 20 7 20 9 0 2 -9 4 -20 4 -11 0
-20 -4 -20 -9z"/>
<path d="M4655 3150 c3 -5 10 -10 16 -10 5 0 9 5 9 10 0 6 -7 10 -16 10 -8 0
-12 -4 -9 -10z"/>
<path d="M4820 3122 c0 -11 7 -22 15 -26 8 -3 15 -1 15 4 0 6 -5 10 -11 10 -5
0 -8 4 -4 9 3 5 1 12 -5 16 -5 3 -10 -3 -10 -13z"/>
<path d="M4930 3101 c0 -6 5 -13 10 -16 6 -3 10 -11 10 -16 0 -6 -4 -7 -10 -4
-5 3 -10 3 -11 -2 0 -4 -2 -15 -4 -24 -4 -24 6 -35 43 -42 31 -6 32 -6 32 28
0 29 -4 35 -22 36 -22 1 -22 1 2 9 l25 8 -29 1 c-21 1 -27 5 -22 16 3 9 0 15
-9 15 -8 0 -15 -4 -15 -9z"/>
<path d="M4450 3090 c0 -5 5 -10 11 -10 5 0 7 5 4 10 -3 6 -8 10 -11 10 -2 0
-4 -4 -4 -10z"/>
<path d="M4990 3095 c0 -3 2 -5 5 -5 3 0 5 2 5 5 0 3 -2 5 -5 5 -3 0 -5 -2 -5
-5z"/>
<path d="M1640 3085 c0 -3 2 -5 5 -5 3 0 5 2 5 5 0 3 -2 5 -5 5 -3 0 -5 -2 -5
-5z"/>
<path d="M4400 3085 c0 -3 2 -5 5 -5 3 0 5 2 5 5 0 3 -2 5 -5 5 -3 0 -5 -2 -5
-5z"/>
<path d="M1510 3070 c0 -7 3 -10 7 -7 3 4 3 10 0 14 -4 3 -7 0 -7 -7z"/>
<path d="M4713 3063 c-7 -3 -13 -9 -13 -15 0 -15 28 -39 34 -29 3 5 15 7 26 4
14 -4 20 0 20 11 0 9 -8 16 -18 16 -10 0 -22 4 -27 9 -6 5 -16 6 -22 4z"/>
<path d="M4437 3053 c-10 -10 -8 -53 2 -53 10 0 21 24 21 46 0 15 -12 19 -23
7z"/>
<path d="M4395 3000 c4 -6 11 -8 16 -5 14 9 11 15 -7 15 -8 0 -12 -5 -9 -10z"/>
<path d="M1405 2980 c-9 -27 3 -60 21 -60 8 0 14 -5 14 -11 0 -5 3 -8 8 -5 4
2 6 25 4 50 -4 50 -34 66 -47 26z"/>
<path d="M1490 2976 c0 -45 14 -65 21 -31 l7 30 1 -27 c1 -18 7 -28 16 -28 18
0 19 20 3 55 -15 33 -48 34 -48 1z"/>
<path d="M4433 2983 c-21 -3 -33 -10 -33 -19 0 -9 5 -12 12 -8 6 4 33 6 60 5
28 -1 48 2 48 9 0 5 -6 10 -14 10 -8 0 -20 2 -28 3 -7 2 -28 2 -45 0z"/>
<path d="M4720 2971 c0 -6 -9 -11 -20 -11 -11 0 -20 -6 -20 -14 0 -9 7 -12 20
-9 11 3 20 0 20 -6 0 -7 17 -10 43 -10 l42 2 -35 6 -35 7 35 8 35 8 -31 8
c-17 4 -36 10 -42 14 -7 4 -12 2 -12 -3z"/>
<path d="M4958 2968 c6 -6 18 -8 28 -6 14 3 12 5 -9 10 -19 3 -25 2 -19 -4z"/>
<path d="M4057 2954 c-8 -8 1 -24 14 -24 5 0 9 7 9 15 0 15 -12 20 -23 9z"/>
<path d="M2133 2933 c-7 -2 -13 -14 -13 -24 0 -12 4 -17 11 -13 8 4 7 0 0 -15
-7 -12 -11 -47 -9 -78 3 -54 4 -56 21 -39 23 24 21 7 -3 -24 -11 -14 -20 -19
-20 -12 0 7 -4 10 -10 7 -5 -3 -10 -2 -10 3 0 5 -10 14 -23 19 -22 10 -23 9
-19 -21 4 -29 3 -30 -11 -12 -14 18 -14 18 -19 -12 -3 -21 0 -32 8 -32 7 0 15
-6 17 -12 4 -10 8 -9 16 2 9 13 11 12 12 -5 0 -20 1 -20 8 -1 7 19 8 18 14 -5
6 -19 9 -21 16 -9 9 12 11 12 16 -2 6 -14 10 -15 26 -5 20 12 26 37 9 37 -11
0 -13 42 -4 89 5 24 12 31 30 31 27 0 45 43 25 63 -6 6 -11 7 -11 3 0 -5 -7
-3 -15 4 -8 7 -15 19 -15 27 0 13 -24 44 -32 42 -2 0 -9 -3 -15 -6z m37 -88
c0 -3 -2 -5 -5 -5 -3 0 -5 2 -5 5 0 3 2 5 5 5 3 0 5 -2 5 -5z"/>
<path d="M1184 2918 c-4 -5 0 -17 9 -25 13 -14 16 -13 26 5 11 21 -22 41 -35
20z"/>
<path d="M4147 2924 c-3 -6 -3 -28 0 -49 5 -33 7 -35 14 -18 9 24 -4 83 -14
67z"/>
<path d="M1470 2908 c0 -10 -7 -18 -15 -18 -8 0 -15 -7 -15 -15 0 -18 11 -19
45 -3 21 9 28 9 34 0 4 -7 15 -10 25 -6 22 9 2 24 -31 24 -12 0 -27 8 -32 18
-10 16 -10 16 -11 0z"/>
<path d="M1681 2904 c0 -11 3 -14 6 -6 3 7 2 16 -1 19 -3 4 -6 -2 -5 -13z"/>
<path d="M4070 2915 c0 -3 2 -5 5 -5 3 0 5 2 5 5 0 3 -2 5 -5 5 -3 0 -5 -2 -5
-5z"/>
<path d="M1593 2903 c-18 -6 -16 -30 3 -37 38 -14 62 -7 60 19 -1 23 -16 37
-16 15 0 -12 -27 -13 -32 -1 -1 4 -9 6 -15 4z"/>
<path d="M4415 2901 c-18 -7 -17 -8 7 -14 29 -8 58 0 58 14 0 11 -37 11 -65 0z"/>
<path d="M940 2890 c0 -5 5 -10 11 -10 5 0 7 5 4 10 -3 6 -8 10 -11 10 -2 0
-4 -4 -4 -10z"/>
<path d="M970 2870 c0 -18 4 -29 10 -25 6 3 10 15 10 25 0 10 -4 22 -10 25 -6
4 -10 -7 -10 -25z"/>
<path d="M1832 2893 c-38 -4 -41 -6 -32 -23 8 -15 6 -21 -7 -29 -17 -9 -17
-10 1 -17 11 -4 21 -2 27 7 6 10 9 7 9 -12 0 -26 23 -45 40 -34 4 3 6 -5 3
-17 -4 -21 -4 -21 9 2 16 28 18 123 3 125 -6 1 -29 0 -53 -2z"/>
<path d="M1650 2845 c0 -3 2 -5 5 -5 3 0 5 2 5 5 0 3 -2 5 -5 5 -3 0 -5 -2 -5
-5z"/>
<path d="M1760 2835 c0 -3 2 -5 5 -5 3 0 5 2 5 5 0 3 -2 5 -5 5 -3 0 -5 -2 -5
-5z"/>
<path d="M4330 2814 c0 -16 5 -24 13 -22 17 6 18 48 1 48 -8 0 -14 -11 -14
-26z"/>
<path d="M4977 2787 c-3 -7 -3 -25 0 -40 3 -16 1 -27 -6 -27 -6 0 -11 -9 -11
-19 0 -14 6 -19 20 -18 18 1 20 8 20 59 0 54 -11 76 -23 45z"/>
<path d="M4543 2783 c4 -3 10 -3 14 0 3 4 0 7 -7 7 -7 0 -10 -3 -7 -7z"/>
<path d="M1626 2771 c-3 -5 1 -11 9 -14 9 -4 12 -1 8 9 -6 16 -10 17 -17 5z"/>
<path d="M1600 2755 c0 -3 2 -5 5 -5 3 0 5 2 5 5 0 3 -2 5 -5 5 -3 0 -5 -2 -5
-5z"/>
<path d="M4535 2720 c3 -5 10 -10 16 -10 5 0 9 5 9 10 0 6 -7 10 -16 10 -8 0
-12 -4 -9 -10z"/>
<path d="M1593 2700 c-2 -23 5 -25 30 -6 22 17 22 21 -6 24 -16 1 -23 -4 -24
-18z"/>
<path d="M4320 2685 c0 -3 2 -5 5 -5 3 0 5 2 5 5 0 3 -2 5 -5 5 -3 0 -5 -2 -5
-5z"/>
<path d="M950 2675 c0 -3 2 -5 5 -5 3 0 5 2 5 5 0 3 -2 5 -5 5 -3 0 -5 -2 -5
-5z"/>
<path d="M4425 2670 c-2 -3 -1 -18 2 -33 5 -27 7 -28 62 -26 83 4 91 7 91 40
l0 28 -76 -2 c-42 -1 -77 -4 -79 -7z"/>
<path d="M924 2656 c-4 -10 -2 -22 4 -28 8 -8 13 -7 18 6 4 10 2 22 -4 28 -8
8 -13 7 -18 -6z"/>
<path d="M963 2654 c-3 -8 -1 -20 6 -27 8 -8 11 -4 11 16 0 30 -7 35 -17 11z"/>
<path d="M4150 2665 c0 -3 2 -5 5 -5 3 0 5 2 5 5 0 3 -2 5 -5 5 -3 0 -5 -2 -5
-5z"/>
<path d="M4340 2660 c0 -7 3 -10 7 -7 3 4 3 10 0 14 -4 3 -7 0 -7 -7z"/>
<path d="M4240 2655 c0 -3 2 -5 5 -5 3 0 5 2 5 5 0 3 -2 5 -5 5 -3 0 -5 -2 -5
-5z"/>
<path d="M1360 2636 c0 -25 -65 -44 -74 -21 -9 23 -28 17 -24 -7 3 -25 44 -36
76 -22 10 3 36 6 60 5 41 -2 42 -2 42 28 0 29 -2 31 -40 31 -28 0 -40 -4 -40
-14z"/>
<path d="M4990 2645 c0 -3 2 -5 5 -5 3 0 5 2 5 5 0 3 -2 5 -5 5 -3 0 -5 -2 -5
-5z"/>
<path d="M60 2595 c0 -3 2 -5 5 -5 3 0 5 2 5 5 0 3 -2 5 -5 5 -3 0 -5 -2 -5
-5z"/>
<path d="M4262 2588 c5 -16 58 -23 58 -9 0 6 7 8 15 5 8 -4 15 -1 15 5 0 6
-19 11 -46 11 -32 0 -44 -4 -42 -12z"/>
<path d="M4430 2578 c0 -17 3 -19 12 -10 7 7 27 12 45 12 18 0 33 5 33 10 0 6
-20 10 -45 10 -40 0 -45 -3 -45 -22z"/>
<path d="M4960 2554 l-35 -34 28 0 c15 0 27 -4 27 -10 0 -5 -4 -10 -9 -10 -22
0 -18 -38 5 -49 l24 -11 0 75 c0 41 -1 75 -2 74 -2 -1 -19 -16 -38 -35z"/>
<path d="M2126 2565 c-4 -11 16 -45 27 -45 3 0 7 7 9 15 3 13 7 13 29 1 25
-13 28 -12 37 9 12 27 5 40 -14 24 -7 -6 -19 -7 -26 -3 -18 12 -57 11 -62 -1z"/>
<path d="M4666 2551 c-5 -8 23 -39 31 -33 12 8 18 -3 20 -33 1 -19 -3 -35 -8
-35 -20 0 -7 -28 16 -34 25 -6 25 -8 24 -94 -1 -91 -6 -113 -20 -91 -10 17
-23 5 -16 -16 9 -22 34 -19 61 8 24 24 46 190 26 202 -4 3 -6 14 -3 25 3 12 0
20 -6 20 -7 0 -9 -5 -5 -12 5 -8 0 -9 -17 -5 -13 4 -28 7 -32 7 -5 0 -2 7 7
15 8 8 22 12 30 9 9 -3 16 -3 16 0 0 4 -12 11 -26 16 -20 8 -24 13 -15 24 16
20 -13 43 -33 27 -10 -8 -16 -9 -21 -1 -8 12 -22 13 -29 1z m114 -281 c0 -5
-4 -10 -10 -10 -5 0 -10 5 -10 10 0 6 5 10 10 10 6 0 10 -4 10 -10z"/>
<path d="M1631 2534 c0 -11 3 -14 6 -6 3 7 2 16 -1 19 -3 4 -6 -2 -5 -13z"/>
<path d="M4377 2543 c-16 -15 -4 -23 34 -23 26 0 38 4 33 11 -3 6 -15 9 -25 6
-11 -3 -19 -1 -19 4 0 11 -14 12 -23 2z"/>
<path d="M4773 2543 c4 -3 10 -3 14 0 3 4 0 7 -7 7 -7 0 -10 -3 -7 -7z"/>
<path d="M2066 2531 c-3 -5 1 -11 9 -14 9 -4 12 -1 8 9 -6 16 -10 17 -17 5z"/>
<path d="M2018 2496 c-16 -32 -16 -35 0 -41 13 -5 14 -8 3 -14 -8 -6 -9 -11
-3 -15 11 -7 16 6 27 67 7 46 -5 47 -27 3z"/>
<path d="M4468 2523 c7 -3 16 -2 19 1 4 3 -2 6 -13 5 -11 0 -14 -3 -6 -6z"/>
<path d="M2302 2500 c-10 -26 -7 -40 7 -40 13 0 20 36 10 51 -6 10 -10 7 -17
-11z"/>
<path d="M2066 2458 c8 -51 7 -49 22 -39 10 6 9 15 -3 44 -20 49 -27 47 -19
-5z"/>
<path d="M4171 2465 c-9 -35 -5 -75 9 -75 7 0 20 58 20 93 0 30 -19 18 -29
-18z"/>
<path d="M4603 2485 c16 -9 31 -14 35 -11 8 9 0 14 -33 21 l-30 6 28 -16z"/>
<path d="M1633 2465 c-13 -30 -4 -32 26 -6 19 17 13 32 -12 31 -1 0 -7 -11
-14 -25z"/>
<path d="M1860 2445 c0 -3 2 -5 5 -5 3 0 5 2 5 5 0 3 -2 5 -5 5 -3 0 -5 -2 -5
-5z"/>
<path d="M4596 2435 c4 -10 0 -15 -12 -15 -22 -1 -64 -29 -46 -31 7 -1 23 -1
37 -1 41 0 43 1 50 23 5 14 2 25 -6 30 -21 13 -29 11 -23 -6z"/>
<path d="M1883 2433 c4 -3 10 -3 14 0 3 4 0 7 -7 7 -7 0 -10 -3 -7 -7z"/>
<path d="M2980 2435 c0 -3 2 -5 5 -5 3 0 5 2 5 5 0 3 -2 5 -5 5 -3 0 -5 -2 -5
-5z"/>
<path d="M4308 2433 c6 -2 12 -12 12 -20 0 -9 11 -26 25 -39 14 -13 25 -27 25
-32 0 -5 11 -22 25 -38 14 -16 25 -23 25 -16 0 6 7 12 15 12 9 0 12 6 9 15 -5
11 -10 13 -19 5 -9 -8 -12 -3 -11 20 1 22 6 30 19 30 10 0 16 4 12 9 -3 5 -21
7 -40 4 -33 -5 -35 -4 -41 26 -6 27 -10 31 -38 30 -17 0 -25 -3 -18 -6z"/>
<path d="M4013 2423 c9 -2 23 -2 30 0 6 3 -1 5 -18 5 -16 0 -22 -2 -12 -5z"/>
<path d="M2040 2386 c0 -21 5 -24 35 -24 43 0 45 12 5 33 -38 20 -40 19 -40
-9z"/>
<path d="M2176 2374 c-3 -8 -15 -14 -27 -14 -11 0 -28 -9 -37 -20 -12 -15 -31
-21 -64 -22 -71 -3 -58 -14 25 -22 39 -4 87 -10 106 -13 31 -5 33 -4 26 18 -4
13 -12 26 -16 27 -23 9 -7 32 21 32 18 0 30 5 30 13 0 19 -57 20 -64 1z"/>
<path d="M4720 2385 c0 -3 2 -5 5 -5 3 0 5 2 5 5 0 3 -2 5 -5 5 -3 0 -5 -2 -5
-5z"/>
<path d="M3400 2371 c0 -9 30 -24 36 -18 2 1 -6 8 -16 15 -11 7 -20 8 -20 3z"/>
<path d="M4013 2373 c9 -2 23 -2 30 0 6 3 -1 5 -18 5 -16 0 -22 -2 -12 -5z"/>
<path d="M4610 2365 c0 -3 2 -5 5 -5 3 0 5 2 5 5 0 3 -2 5 -5 5 -3 0 -5 -2 -5
-5z"/>
<path d="M3320 2350 c0 -7 3 -10 7 -7 3 4 3 10 0 14 -4 3 -7 0 -7 -7z"/>
<path d="M1979 2333 c-13 -15 -12 -16 11 -8 14 4 40 7 58 7 17 0 32 4 32 9 0
17 -87 10 -101 -8z"/>
<path d="M1396 2312 c-3 -6 -1 -14 5 -17 15 -10 25 3 12 16 -7 7 -13 7 -17 1z"/>
<path d="M1700 2315 c0 -3 2 -5 5 -5 3 0 5 2 5 5 0 3 -2 5 -5 5 -3 0 -5 -2 -5
-5z"/>
<path d="M4170 2315 c0 -3 2 -5 5 -5 3 0 5 2 5 5 0 3 -2 5 -5 5 -3 0 -5 -2 -5
-5z"/>
<path d="M1145 2300 c3 -5 13 -10 21 -10 8 0 14 5 14 10 0 6 -9 10 -21 10 -11
0 -17 -4 -14 -10z"/>
<path d="M1916 2284 c-9 -34 -3 -39 45 -39 34 0 39 3 39 23 0 15 -6 22 -19 22
-11 0 -23 5 -26 10 -12 19 -33 10 -39 -16z"/>
<path d="M1860 2291 c0 -6 4 -12 8 -15 5 -3 9 1 9 9 0 8 -4 15 -9 15 -4 0 -8
-4 -8 -9z"/>
<path d="M1283 2283 c4 -3 10 -3 14 0 3 4 0 7 -7 7 -7 0 -10 -3 -7 -7z"/>
<path d="M4578 2283 c12 -2 32 -2 45 0 12 2 2 4 -23 4 -25 0 -35 -2 -22 -4z"/>
<path d="M1346 2265 c4 -8 8 -15 10 -15 2 0 4 7 4 15 0 8 -4 15 -10 15 -5 0
-7 -7 -4 -15z"/>
<path d="M1370 2245 c0 -19 -5 -35 -10 -35 -7 0 -7 -6 0 -19 12 -24 13 -34 1
-26 -20 12 -19 -12 0 -29 25 -21 32 -16 32 19 0 19 3 23 10 16 21 -21 27 -10
27 49 l0 60 -30 0 c-28 0 -30 -3 -30 -35z"/>
<path d="M1700 2270 c0 -7 3 -10 7 -7 3 4 3 10 0 14 -4 3 -7 0 -7 -7z"/>
<path d="M4150 2275 c0 -3 2 -5 5 -5 3 0 5 2 5 5 0 3 -2 5 -5 5 -3 0 -5 -2 -5
-5z"/>
<path d="M4700 2265 c0 -8 5 -15 10 -15 6 0 10 7 10 15 0 8 -4 15 -10 15 -5 0
-10 -7 -10 -15z"/>
<path d="M1890 2255 c0 -3 2 -5 5 -5 3 0 5 2 5 5 0 3 -2 5 -5 5 -3 0 -5 -2 -5
-5z"/>
<path d="M4160 2230 c0 -5 5 -10 11 -10 5 0 7 5 4 10 -3 6 -8 10 -11 10 -2 0
-4 -4 -4 -10z"/>
<path d="M3340 2225 c0 -3 2 -5 5 -5 3 0 5 2 5 5 0 3 -2 5 -5 5 -3 0 -5 -2 -5
-5z"/>
<path d="M4320 2210 c0 -5 5 -10 11 -10 5 0 7 5 4 10 -3 6 -8 10 -11 10 -2 0
-4 -4 -4 -10z"/>
<path d="M4960 2214 c0 -7 27 -34 34 -34 3 0 6 9 6 20 0 13 -7 20 -20 20 -11
0 -20 -3 -20 -6z"/>
<path d="M4120 2205 c0 -3 2 -5 5 -5 3 0 5 2 5 5 0 3 -2 5 -5 5 -3 0 -5 -2 -5
-5z"/>
<path d="M4933 2203 c4 -3 10 -3 14 0 3 4 0 7 -7 7 -7 0 -10 -3 -7 -7z"/>
<path d="M3280 2189 c0 -5 5 -7 10 -4 6 3 10 8 10 11 0 2 -4 4 -10 4 -5 0 -10
-5 -10 -11z"/>
<path d="M4150 2190 c0 -7 3 -10 7 -7 3 4 3 10 0 14 -4 3 -7 0 -7 -7z"/>
<path d="M4660 2190 c0 -7 3 -10 7 -7 3 4 3 10 0 14 -4 3 -7 0 -7 -7z"/>
<path d="M4320 2175 c0 -3 2 -5 5 -5 3 0 5 2 5 5 0 3 -2 5 -5 5 -3 0 -5 -2 -5
-5z"/>
<path d="M3061 2166 c11 -9 99 -15 99 -6 0 6 -23 10 -52 10 -28 0 -49 -2 -47
-4z"/>
<path d="M3203 2163 c4 -3 10 -3 14 0 3 4 0 7 -7 7 -7 0 -10 -3 -7 -7z"/>
<path d="M4940 2159 c0 -16 26 -39 44 -39 10 0 16 9 16 25 0 26 -14 34 -24 13
-5 -10 -7 -10 -12 0 -7 15 -24 16 -24 1z"/>
<path d="M4650 2155 c0 -3 2 -5 5 -5 3 0 5 2 5 5 0 3 -2 5 -5 5 -3 0 -5 -2 -5
-5z"/>
<path d="M4880 2141 c0 -12 5 -21 10 -21 6 0 10 6 10 14 0 8 -4 18 -10 21 -5
3 -10 -3 -10 -14z"/>
<path d="M1735 2130 c3 -5 8 -10 11 -10 2 0 4 5 4 10 0 6 -5 10 -11 10 -5 0
-7 -4 -4 -10z"/>
<path d="M1680 2126 c0 -2 7 -7 16 -10 8 -3 12 -2 9 4 -6 10 -25 14 -25 6z"/>
<path d="M1800 2110 c-8 -5 -12 -11 -9 -14 7 -8 49 5 49 15 0 12 -21 11 -40
-1z"/>
<path d="M1740 2080 c0 -7 3 -10 7 -7 3 4 3 10 0 14 -4 3 -7 0 -7 -7z"/>
<path d="M1760 2075 c0 -3 2 -5 5 -5 3 0 5 2 5 5 0 3 -2 5 -5 5 -3 0 -5 -2 -5
-5z"/>
<path d="M1813 2055 c-17 -14 -17 -14 2 -15 29 0 51 16 32 23 -8 3 -23 -1 -34
-8z"/>
<path d="M4703 2063 c4 -3 10 -3 14 0 3 4 0 7 -7 7 -7 0 -10 -3 -7 -7z"/>
<path d="M4824 2037 c-3 -10 2 -29 12 -45 24 -35 31 -9 10 33 -13 24 -16 26
-22 12z"/>
<path d="M980 2025 c0 -3 2 -5 5 -5 3 0 5 2 5 5 0 3 -2 5 -5 5 -3 0 -5 -2 -5
-5z"/>
<path d="M4870 2005 c0 -3 2 -5 5 -5 3 0 5 2 5 5 0 3 -2 5 -5 5 -3 0 -5 -2 -5
-5z"/>
<path d="M4891 1991 c-10 -6 -10 -10 -1 -16 13 -8 24 -1 19 14 -3 6 -10 7 -18
2z"/>
<path d="M4983 1983 c4 -3 10 -3 14 0 3 4 0 7 -7 7 -7 0 -10 -3 -7 -7z"/>
<path d="M4900 1950 c0 -7 3 -10 7 -7 3 4 3 10 0 14 -4 3 -7 0 -7 -7z"/>
<path d="M4990 1935 c0 -3 2 -5 5 -5 3 0 5 2 5 5 0 3 -2 5 -5 5 -3 0 -5 -2 -5
-5z"/>
<path d="M800 1915 c0 -3 2 -5 5 -5 3 0 5 2 5 5 0 3 -2 5 -5 5 -3 0 -5 -2 -5
-5z"/>
<path d="M3900 1646 c0 -8 90 -50 94 -45 25 25 8 44 -41 47 -29 2 -53 1 -53
-2z"/>
<path d="M4243 1563 c4 -3 10 -3 14 0 3 4 0 7 -7 7 -7 0 -10 -3 -7 -7z"/>
<path d="M4620 1545 c0 -3 2 -5 5 -5 3 0 5 2 5 5 0 3 -2 5 -5 5 -3 0 -5 -2 -5
-5z"/>
<path d="M4230 1535 c0 -3 2 -5 5 -5 3 0 5 2 5 5 0 3 -2 5 -5 5 -3 0 -5 -2 -5
-5z"/>
<path d="M4190 1495 c0 -3 2 -5 5 -5 3 0 5 2 5 5 0 3 -2 5 -5 5 -3 0 -5 -2 -5
-5z"/>
<path d="M4800 1495 c0 -3 2 -5 5 -5 3 0 5 2 5 5 0 3 -2 5 -5 5 -3 0 -5 -2 -5
-5z"/>
<path d="M4640 1480 c0 -7 3 -10 7 -7 3 4 3 10 0 14 -4 3 -7 0 -7 -7z"/>
<path d="M27 1423 c-12 -11 -8 -23 8 -23 8 0 15 7 15 15 0 16 -12 20 -23 8z"/>
<path d="M4720 1395 c0 -3 2 -5 5 -5 3 0 5 2 5 5 0 3 -2 5 -5 5 -3 0 -5 -2 -5
-5z"/>
<path d="M4888 1393 c7 -3 16 -2 19 1 4 3 -2 6 -13 5 -11 0 -14 -3 -6 -6z"/>
<path d="M4960 1390 c0 -5 9 -10 20 -10 11 0 20 5 20 10 0 6 -9 10 -20 10 -11
0 -20 -4 -20 -10z"/>
<path d="M120 1195 c0 -3 2 -5 5 -5 3 0 5 2 5 5 0 3 -2 5 -5 5 -3 0 -5 -2 -5
-5z"/>
<path d="M10 1170 c0 -5 5 -10 10 -10 6 0 10 5 10 10 0 6 -4 10 -10 10 -5 0
-10 -4 -10 -10z"/>
<path d="M118 1164 c10 -18 5 -51 -11 -71 -13 -17 -27 -16 -27 2 0 9 -6 12
-15 9 -8 -4 -12 -10 -9 -15 3 -5 0 -9 -5 -9 -6 0 -11 5 -11 10 0 6 -6 10 -14
10 -9 0 -12 -8 -9 -24 5 -26 52 -43 64 -24 4 7 9 6 13 -1 4 -6 -3 -15 -16 -20
l-23 -9 27 -7 c33 -8 48 0 48 26 0 24 35 91 43 83 3 -4 18 -3 33 0 35 9 22 21
-21 18 -25 -2 -38 3 -47 18 -15 24 -33 27 -20 4z"/>
<path d="M70 1155 c0 -3 2 -5 5 -5 3 0 5 2 5 5 0 3 -2 5 -5 5 -3 0 -5 -2 -5
-5z"/>
<path d="M1 1004 c0 -11 3 -14 6 -6 3 7 2 16 -1 19 -3 4 -6 -2 -5 -13z"/>
<path d="M60 990 c0 -5 4 -10 9 -10 6 0 13 5 16 10 3 6 -1 10 -9 10 -9 0 -16
-4 -16 -10z"/>
</g>
</svg>
